<svg xmlns="http://www.w3.org/2000/svg" width="66" height="66" viewBox="0 0 66 66">
  <g id="Grupo_156" data-name="Grupo 156" transform="translate(-231 -711)">
    <circle id="Elipse_16" data-name="Elipse 16" cx="33" cy="33" r="33" transform="translate(231 711)" fill="#1f4690"/>
    <path id="Icon_awesome-phone" data-name="Icon awesome-phone" d="M1.162,1.537l6.5-1.5A1.51,1.51,0,0,1,9.38.906l3,7a1.5,1.5,0,0,1-.431,1.75l-3.787,3.1A23.163,23.163,0,0,0,19.236,23.831l3.1-3.787a1.5,1.5,0,0,1,1.75-.431l7,3a1.518,1.518,0,0,1,.875,1.725l-1.5,6.5A1.5,1.5,0,0,1,29,32,29,29,0,0,1,0,3,1.5,1.5,0,0,1,1.162,1.537Z" transform="translate(248.001 728.001)" fill="#fff"/>
  </g>
</svg>
