<svg xmlns="http://www.w3.org/2000/svg" width="42.8" height="40.762" viewBox="0 0 42.8 40.762">
  <g id="Grupo_29" data-name="Grupo 29" transform="translate(0)">
    <rect id="Rectángulo_140" data-name="Rectángulo 140" width="42.8" height="40.762" rx="4" transform="translate(0 0)" fill="#1f4690"/>
    <path id="Icon_simple-tiktok" data-name="Icon simple-tiktok" d="M17.354.027C19.147,0,20.926.014,22.705,0A8.524,8.524,0,0,0,25.1,5.706a9.651,9.651,0,0,0,5.8,2.45v5.515a14.647,14.647,0,0,1-5.747-1.327,16.907,16.907,0,0,1-2.217-1.273c-.014,4,.014,7.992-.027,11.974a10.452,10.452,0,0,1-1.847,5.392,10.2,10.2,0,0,1-8.088,4.393,9.978,9.978,0,0,1-5.583-1.409A10.319,10.319,0,0,1,2.4,23.606c-.027-.684-.041-1.368-.014-2.039A10.3,10.3,0,0,1,14.33,12.425c.027,2.025-.055,4.051-.055,6.076a4.7,4.7,0,0,0-5.994,2.9,5.429,5.429,0,0,0-.192,2.2,4.657,4.657,0,0,0,4.79,3.927,4.6,4.6,0,0,0,3.791-2.2,3.157,3.157,0,0,0,.561-1.451c.137-2.45.082-4.885.1-7.335.014-5.515-.014-11.016.027-16.517Z" transform="translate(4.764 3.966)" fill="#fff"/>
  </g>
</svg>
