<svg xmlns="http://www.w3.org/2000/svg" width="66" height="66" viewBox="0 0 66 66">
  <g id="Grupo_155" data-name="Grupo 155" transform="translate(-231 -612)">
    <circle id="Elipse_15" data-name="Elipse 15" cx="33" cy="33" r="33" transform="translate(231 612)" fill="#1f4690"/>
    <g id="Icon_ionic-ios-mail" data-name="Icon ionic-ios-mail" transform="translate(245.76 632.872)">
      <path id="Trazado_8" data-name="Trazado 8" d="M39.556,10.368l-9.436,9.611a.17.17,0,0,0,0,.246l6.6,7.033a1.138,1.138,0,0,1,0,1.614,1.143,1.143,0,0,1-1.614,0l-6.577-7.007a.18.18,0,0,0-.254,0l-1.6,1.631a7.06,7.06,0,0,1-5.033,2.122A7.2,7.2,0,0,1,16.5,23.434l-1.543-1.57a.18.18,0,0,0-.254,0L8.128,28.871a1.143,1.143,0,0,1-1.614,0,1.138,1.138,0,0,1,0-1.614l6.6-7.033a.187.187,0,0,0,0-.246L3.673,10.368a.173.173,0,0,0-.3.123V29.722a2.814,2.814,0,0,0,2.806,2.806H37.048a2.814,2.814,0,0,0,2.806-2.806V10.49A.175.175,0,0,0,39.556,10.368Z" transform="translate(-3.375 -7.272)" fill="#fff"/>
      <path id="Trazado_9" data-name="Trazado 9" d="M21.4,23.932a4.767,4.767,0,0,0,3.429-1.438l13.759-14a2.756,2.756,0,0,0-1.736-.614H5.962a2.738,2.738,0,0,0-1.736.614l13.759,14A4.768,4.768,0,0,0,21.4,23.932Z" transform="translate(-3.165 -7.875)" fill="#fff"/>
    </g>
  </g>
</svg>
