<svg xmlns="http://www.w3.org/2000/svg" width="43.114" height="40.696" viewBox="0 0 43.114 40.696">
  <path id="Icon_awesome-facebook-square" data-name="Icon awesome-facebook-square" d="M38.495,2.25H4.619A4.5,4.5,0,0,0,0,6.61V38.585a4.5,4.5,0,0,0,4.619,4.36H17.828V29.11H11.765V22.6h6.063V17.634c0-5.646,3.561-8.764,9.015-8.764a38.85,38.85,0,0,1,5.343.44v5.541H29.176c-2.965,0-3.89,1.737-3.89,3.518V22.6h6.619L30.847,29.11H25.286V42.946H38.495a4.5,4.5,0,0,0,4.619-4.36V6.61a4.5,4.5,0,0,0-4.619-4.36Z" transform="translate(0 -2.25)" fill="#1f4690"/>
</svg>
