<svg xmlns="http://www.w3.org/2000/svg" width="43.138" height="40.71" viewBox="0 0 43.138 40.71">
  <path id="Icon_awesome-instagram" data-name="Icon awesome-instagram" d="M21.569,12.155c-6.121,0-11.058,4.66-11.058,10.438S15.448,33.03,21.569,33.03s11.058-4.66,11.058-10.438S27.689,12.155,21.569,12.155Zm0,17.223a7.009,7.009,0,0,1-7.189-6.786,7,7,0,0,1,7.189-6.786,7,7,0,0,1,7.189,6.786A7.009,7.009,0,0,1,21.569,29.378Zm14.089-17.65a2.583,2.583,0,0,1-5.158,0,2.583,2.583,0,0,1,5.158,0ZM42.982,14.2c-.164-3.261-.953-6.15-3.484-8.53s-5.582-3.125-9.037-3.288c-3.561-.191-14.234-.191-17.794,0-3.445.154-6.506.9-9.037,3.279S.32,10.929.146,14.19c-.2,3.361-.2,13.435,0,16.8.164,3.261.953,6.15,3.484,8.53s5.582,3.125,9.037,3.288C16.228,43,26.9,43,30.461,42.8c3.455-.154,6.515-.9,9.037-3.288s3.311-5.269,3.484-8.53c.2-3.361.2-13.426,0-16.787Zm-4.6,20.394a7.087,7.087,0,0,1-4.1,3.87c-2.839,1.063-9.576.818-12.713.818s-9.884.236-12.713-.818a7.087,7.087,0,0,1-4.1-3.87c-1.126-2.68-.866-9.039-.866-12s-.25-9.329.866-12a7.087,7.087,0,0,1,4.1-3.87c2.839-1.063,9.576-.818,12.713-.818s9.884-.236,12.713.818a7.087,7.087,0,0,1,4.1,3.87c1.126,2.68.866,9.039.866,12S39.507,31.922,38.381,34.593Z" transform="translate(0.005 -2.238)" fill="#fff"/>
</svg>
