<svg xmlns="http://www.w3.org/2000/svg" width="42.803" height="40.764" viewBox="0 0 42.803 40.764">
  <path id="Sustracción_1" data-name="Sustracción 1" d="M-19122.2,40.764h-34.8a4.006,4.006,0,0,1-4-4V4a4.006,4.006,0,0,1,4-4h34.8a4.005,4.005,0,0,1,4,4V36.763A4.005,4.005,0,0,1-19122.2,40.764Zm-21.437-24.532a10.352,10.352,0,0,0-6.686,2.512,10.267,10.267,0,0,0-3.533,6.79c-.023.7-.008,1.393.014,2.039a10.325,10.325,0,0,0,5,7.814,10.116,10.116,0,0,0,5.094,1.423c.16,0,.326,0,.49-.014a10.172,10.172,0,0,0,8.088-4.4,10.527,10.527,0,0,0,1.848-5.391c.025-2.476.027-4.962.023-7.5,0-1.771,0-3.192,0-4.47a16.63,16.63,0,0,0,2.217,1.274,14.648,14.648,0,0,0,5.748,1.327V12.123a9.61,9.61,0,0,1-5.8-2.452,8.52,8.52,0,0,1-2.395-5.7c-.717.006-1.437.007-2.137.008-1.051,0-2.137,0-3.215.021-.025,3.426-.027,6.885-.023,10.422,0,2,0,4.059-.006,6.091,0,.652,0,1.306,0,1.945,0,1.764.008,3.588-.1,5.393a2.949,2.949,0,0,1-.518,1.373l-.041.074a4.593,4.593,0,0,1-3.793,2.2c-.115.01-.232.016-.346.016a4.692,4.692,0,0,1-4.445-3.939c0-.058,0-.116,0-.173l-.006-.172a4.368,4.368,0,0,1,.2-1.857,4.706,4.706,0,0,1,1.861-2.395,4.474,4.474,0,0,1,2.557-.758,5.134,5.134,0,0,1,1.578.248c0-.892.016-1.8.029-2.577.02-1.082.041-2.309.023-3.5A9.337,9.337,0,0,0-19143.637,16.232Z" transform="translate(19161.002)" fill="#fff"/>
</svg>
