<svg xmlns="http://www.w3.org/2000/svg" width="25.31" height="22.146" viewBox="0 0 25.31 22.146">
  <path id="collection_icon_160223" d="M22.937,21.064H2.373a.791.791,0,0,1-.791-.791V9.2a.791.791,0,0,1,.791-.791H22.937a.791.791,0,0,1,.791.791V20.273A.791.791,0,0,1,22.937,21.064ZM2.373,22.646A2.373,2.373,0,0,1,0,20.273V9.2A2.373,2.373,0,0,1,2.373,6.827H22.937A2.373,2.373,0,0,1,25.31,9.2V20.273a2.373,2.373,0,0,1-2.373,2.373ZM3.164,4.455a.791.791,0,0,0,.791.791h17.4a.791.791,0,0,0,0-1.582H3.955A.791.791,0,0,0,3.164,4.455ZM6.327,1.291a.791.791,0,0,0,.791.791H18.191a.791.791,0,0,0,0-1.582H7.118a.791.791,0,0,0-.791.791Z" transform="translate(0 -0.5)" fill="#fff" fill-rule="evenodd"/>
</svg>
