<svg xmlns="http://www.w3.org/2000/svg" width="42" height="41" viewBox="0 0 42 41">
  <g id="download" transform="translate(0.409 0.01)">
    <rect id="Rectángulo_230" data-name="Rectángulo 230" width="42" height="41" transform="translate(-0.409 -0.01)" fill="#fff026" opacity="0"/>
    <rect id="Rectángulo_231" data-name="Rectángulo 231" width="28" height="3" rx="1" transform="translate(6.591 30.99)" fill="#fff026"/>
    <rect id="Rectángulo_232" data-name="Rectángulo 232" width="7" height="4" rx="1" transform="translate(6.591 33.99) rotate(-90)" fill="#fff026"/>
    <rect id="Rectángulo_233" data-name="Rectángulo 233" width="7" height="4" rx="1" transform="translate(30.591 33.99) rotate(-90)" fill="#fff026"/>
    <path id="Trazado_51" data-name="Trazado 51" d="M15.58,18.579a1.716,1.716,0,0,1-1-.309L7.722,13.431a1.716,1.716,0,1,1,1.99-2.8l5.868,4.1,5.833-4.392a1.716,1.716,0,1,1,2.059,2.745l-6.863,5.147a1.716,1.716,0,0,1-1.029.343Z" transform="translate(5.009 7.157)" fill="#fff026"/>
    <path id="Trazado_52" data-name="Trazado 52" d="M12.716,20.157A1.716,1.716,0,0,1,11,18.442V4.716a1.716,1.716,0,1,1,3.431,0V18.442A1.716,1.716,0,0,1,12.716,20.157Z" transform="translate(7.873 2.147)" fill="#fff026"/>
  </g>
</svg>
