<svg xmlns="http://www.w3.org/2000/svg" width="25.2" height="21.371" viewBox="0 0 25.2 21.371">
  <g id="Layer_54" data-name="Layer 54" transform="translate(0 0)">
    <path id="Trazado_89" data-name="Trazado 89" d="M13.613,24.66a2.521,2.521,0,0,1-1.79-.74L3.168,15.265A7.328,7.328,0,0,1,1.05,10.013,6.773,6.773,0,0,1,7.89,3.29,6.773,6.773,0,0,1,12.773,5.3l.84.84L14.3,5.45h0A7.051,7.051,0,0,1,23.546,4.7a6.933,6.933,0,0,1,.681,10.387L15.4,23.921a2.521,2.521,0,0,1-1.79.74ZM7.857,4.962a5.143,5.143,0,0,0-3.58,1.445,5.042,5.042,0,0,0-1.546,3.639A5.647,5.647,0,0,0,4.369,14.08l8.656,8.656a.84.84,0,0,0,1.193,0L23.05,13.9a5.252,5.252,0,0,0,1.487-4.034A5.193,5.193,0,0,0,22.5,6.038a5.353,5.353,0,0,0-7.034.6L14.21,7.92a.84.84,0,0,1-1.193,0L11.588,6.492a5.277,5.277,0,0,0-3.7-1.529Z" transform="translate(-1.049 -3.29)" fill="#fff"/>
  </g>
</svg>
