<svg xmlns="http://www.w3.org/2000/svg" width="24" height="23" viewBox="0 0 24 23">
  <g id="Polígono_8" data-name="Polígono 8" fill="#fff026">
    <path d="M 18.5360050201416 21.7810173034668 L 12.28491973876953 17.44615936279297 L 12 17.24858093261719 L 11.71508026123047 17.44615936279297 L 5.463995456695557 21.7810173034668 L 7.6255202293396 14.44466018676758 L 7.722169876098633 14.11662006378174 L 7.451499938964844 13.9076099395752 L 1.418455958366394 9.248837471008301 L 9.012880325317383 9.053179740905762 L 9.357669830322266 9.044300079345703 L 9.471819877624512 8.718839645385742 L 12 1.510703921318054 L 14.52818012237549 8.718839645385742 L 14.64233016967773 9.044300079345703 L 14.98711967468262 9.053179740905762 L 22.58154487609863 9.248837471008301 L 16.54850006103516 13.9076099395752 L 16.27783012390137 14.11662006378174 L 16.37447929382324 14.44466018676758 L 18.5360050201416 21.7810173034668 Z" stroke="none"/>
    <path d="M 12 3.021398544311523 L 9.715330123901367 9.535249710083008 L 2.8369140625 9.712465286254883 L 8.298430442810059 13.92990016937256 L 6.344387054443359 20.56204605102539 L 12 16.6401195526123 L 17.65561294555664 20.56204605102539 L 15.70156955718994 13.92990016937256 L 21.1630859375 9.712465286254883 L 14.28466987609863 9.535249710083008 L 12 3.021398544311523 M 12 0 L 15 8.553350448608398 L 24 8.785220146179199 L 16.85409927368164 14.3033504486084 L 19.41641044616699 23 L 12 17.85704040527344 L 4.583589553833008 23 L 7.145900726318359 14.3033504486084 L 0 8.785220146179199 L 9 8.553350448608398 L 12 0 Z" stroke="none" fill="#fff026"/>
  </g>
</svg>
