<svg xmlns="http://www.w3.org/2000/svg" width="24" height="23" viewBox="0 0 24 23">
  <g id="Polígono_4" data-name="Polígono 4" fill="none">
    <path d="M12,0l3,8.553,9,.232L16.854,14.3,19.416,23,12,17.857,4.584,23l2.562-8.7L0,8.785l9-.232Z" stroke="none"/>
    <path d="M 12 3.021398544311523 L 9.715330123901367 9.535249710083008 L 2.8369140625 9.712465286254883 L 8.298430442810059 13.92990016937256 L 6.344387054443359 20.56204605102539 L 12 16.6401195526123 L 17.65561294555664 20.56204605102539 L 15.70156955718994 13.92990016937256 L 21.1630859375 9.712465286254883 L 14.28466987609863 9.535249710083008 L 12 3.021398544311523 M 12 0 L 15 8.553350448608398 L 24 8.785220146179199 L 16.85409927368164 14.3033504486084 L 19.41641044616699 23 L 12 17.85704040527344 L 4.583589553833008 23 L 7.145900726318359 14.3033504486084 L 0 8.785220146179199 L 9 8.553350448608398 L 12 0 Z" stroke="none" fill="#8e8e8e"/>
  </g>
</svg>
