<svg xmlns="http://www.w3.org/2000/svg" width="19.727" height="21.371" viewBox="0 0 19.727 21.371">
  <g id="share-social-interface-button_icon-icons.com_73164" transform="translate(0 0)">
    <g id="_x35__27_" transform="translate(0 0)">
      <g id="Grupo_57" data-name="Grupo 57">
        <path id="Trazado_90" data-name="Trazado 90" d="M41.117,13.151a4.1,4.1,0,0,0-3.455,1.9l-4.4-2.515A3.863,3.863,0,0,0,33.526,9.5l4.579-2.616a4.1,4.1,0,1,0-1.1-2.778A4.072,4.072,0,0,0,37.2,5.291L32.621,7.908a4.114,4.114,0,1,0-.53,6.033l-.016.032,4.976,2.844a4.166,4.166,0,0,0-.044.444,4.11,4.11,0,1,0,4.11-4.11Zm0-11.507A2.466,2.466,0,1,1,38.651,4.11,2.466,2.466,0,0,1,41.117,1.644ZM29.61,13.151a2.466,2.466,0,1,1,2.466-2.466A2.466,2.466,0,0,1,29.61,13.151Zm11.507,6.576a2.466,2.466,0,1,1,2.466-2.466A2.466,2.466,0,0,1,41.117,19.727Z" transform="translate(-25.5)" fill="#fff"/>
      </g>
    </g>
  </g>
</svg>
