<svg xmlns="http://www.w3.org/2000/svg" width="91.037" height="51.035" viewBox="0 0 91.037 51.035">
  <g id="c798d1a7581a26d4b145e312c93650cd" transform="translate(0 0)">
    <path id="Trazado_65" data-name="Trazado 65" d="M349.206,225.209a2.352,2.352,0,0,0,.353.065,7.516,7.516,0,0,1,3.083.8c.678.344,1.393.632,2.062.994.5.269.957.613,1.43.919.288.186.576.353.854.548a7.38,7.38,0,0,1,1.337,1.18,6.909,6.909,0,0,1,1.077,1.616c.325.7.669,1.393.975,2.1a11.987,11.987,0,0,1,.446,1.263,6.393,6.393,0,0,1,.167.817c.074.436.158.882.214,1.328a5.826,5.826,0,0,1,.019.9c-.019.548-.028,1.1-.084,1.635a10.53,10.53,0,0,1-.214,1.049,9.576,9.576,0,0,1-.251.984,11.093,11.093,0,0,1-.576,1.421,19.169,19.169,0,0,1-.994,1.746,14.524,14.524,0,0,1-1.059,1.337c-.241.279-.52.529-.771.8a.138.138,0,0,0-.028.13,5,5,0,0,0,.325.418c.074.093.139.074.214-.019.576-.808,1.142-1.625,1.727-2.433.548-.762,1.1-1.514,1.644-2.275s1.068-1.523,1.607-2.275c.464-.659.938-1.319,1.421-1.969a.36.36,0,0,1,.242-.139c1.291-.009,2.573-.009,3.864-.009.037,0,.074.009.121.009V258.7H365.44V239.642a.6.6,0,0,0-.065-.019c-.111.167-.232.325-.344.5-.529.8-1.059,1.6-1.579,2.4-.511.771-1.022,1.551-1.532,2.322-.576.864-1.142,1.727-1.718,2.591-.52.789-1.031,1.588-1.57,2.368-.288.418-.622.808-.947,1.217-.13.167-.26.325-.4.483-.065.074-.13.149-.223.251-.158-.223-.307-.427-.455-.632-.437-.613-.873-1.226-1.31-1.848-.158-.223-.316-.437-.464-.659-.065-.093-.1-.093-.2-.037-.706.325-1.4.65-2.127.938a10.294,10.294,0,0,1-1.393.381c-.464.111-.938.2-1.412.279a6.888,6.888,0,0,1-1.068.074c-.186,0-.223.056-.223.214V258.7H346.67v-8.275c0-.241,0-.232-.26-.251a8.089,8.089,0,0,1-.808-.121c-.279-.046-.548-.093-.817-.158a10.017,10.017,0,0,1-1.179-.316,15.3,15.3,0,0,1-1.709-.7c-.594-.288-1.161-.641-1.728-.975a10.517,10.517,0,0,1-2.192-1.848,17.209,17.209,0,0,1-1.263-1.588,13.55,13.55,0,0,1-1.263-2.266,6.227,6.227,0,0,1-.427-1.207c-.112-.446-.158-.9-.241-1.356a1.559,1.559,0,0,0-.084-.3c-.009-.037-.074-.065-.121-.065-.483-.028-.957-.084-1.44-.074a4.136,4.136,0,0,0-2.8,1.087,3.48,3.48,0,0,0-.929,1.514,4.345,4.345,0,0,0-.214,1.412,4.549,4.549,0,0,0,1.124,2.879,7.789,7.789,0,0,0,1.551,1.365.7.7,0,0,0,.111.065c-.009.019-.028.028-.037.046l-.659-.167c-.241-.065-.474-.13-.715-.186l-.827-.2c-.288-.065-.567-.111-.854-.176-.307-.065-.613-.13-.929-.2-.176-.037-.362-.065-.539-.093-.158-.028-.316-.046-.464-.084a.173.173,0,0,1-.1-.111c-.084-.371-.158-.752-.251-1.133a8.444,8.444,0,0,1-.065-2,4.315,4.315,0,0,1,.13-.771c.046-.223.1-.455.167-.678a4.791,4.791,0,0,1,.594-1.337,5.611,5.611,0,0,1,1.412-1.551,5.453,5.453,0,0,1,1.514-.827c.474-.167.966-.306,1.458-.427a4.914,4.914,0,0,1,.743-.084c.52-.037,1.031-.065,1.551-.093a2.559,2.559,0,0,1,.381.019c.111.009.149-.037.149-.139.018-.39.037-.78.084-1.17.028-.232.093-.455.139-.678.056-.269.1-.548.167-.817.093-.371.186-.734.288-1.1a6.647,6.647,0,0,1,.966-1.96,15.82,15.82,0,0,1,1.022-1.365,14.483,14.483,0,0,1,1.365-1.458,11.745,11.745,0,0,1,3.093-2.08c.613-.279,1.235-.539,1.876-.771a10.308,10.308,0,0,1,1.226-.316c.511-.111,1.031-.214,1.551-.279.418-.056.845-.056,1.263-.084.2-.019.409-.046.6-.074.288.009.6.009.929.009Zm4.922,6.446a11.856,11.856,0,0,1-3.474,3.975c.13.167.26.316.381.474.381.511.762,1.012,1.124,1.532.409.585.817,1.18,1.179,1.793.557.947,1.077,1.922,1.607,2.888.074.139.13.111.223.037.334-.306.687-.594,1.012-.91a12.639,12.639,0,0,0,2.22-2.768.472.472,0,0,0,.056-.334c-.084-.334-.176-.669-.288-.994-.186-.492-.362-.994-.594-1.477a12.87,12.87,0,0,0-3.446-4.217Zm-8.052-.4c-.093.065-.176.121-.26.177a6.919,6.919,0,0,1-1.6.789,7.99,7.99,0,0,1-1.142.316,7.289,7.289,0,0,1-1.105.074c-.121.009-.2.037-.214.158-.046.344-.13.678-.149,1.022-.047.641-.065,1.282-.084,1.923a8.575,8.575,0,0,0,.037.975c.028.4.084.8.121,1.2.019.223.028.241.269.241h2.164a2.068,2.068,0,0,0,.817-.13c.659-.279,1.356-.492,2.006-.8.827-.4,1.616-.854,2.415-1.3.251-.139.483-.325.743-.492a37.724,37.724,0,0,0-4.022-4.152Zm-7.1,9.529c-.418-.2-.808-.39-1.207-.567a15.831,15.831,0,0,0-2.35-.78c-.046-.009-.158.046-.158.074a2.559,2.559,0,0,0,.037.594,11.961,11.961,0,0,0,.724,2.21,4.8,4.8,0,0,0,1.031,1.449,8.646,8.646,0,0,0,.975.864,9.555,9.555,0,0,0,1.347.771,11.413,11.413,0,0,0,1.458.539,8.153,8.153,0,0,0,1.17.232c.381.056.771.093,1.152.139a2.906,2.906,0,0,0,.4.037h1.291a2.315,2.315,0,0,0-.13-.232c-.269-.381-.567-.752-.817-1.142a14.858,14.858,0,0,1-1.4-2.8c-.2-.492-.334-1-.483-1.5-.111-.39-.2-.8-.306-1.189-.037-.111-.009-.288-.232-.288a14.461,14.461,0,0,1-2.285-.074c-.176-.028-.223.037-.214.2.009.474,0,.957,0,1.467Zm.7-9.947c-.028.009-.046.009-.065.028a16.035,16.035,0,0,0-2.331,2.433,11.785,11.785,0,0,0-1.449,2.582.6.6,0,0,0-.084.334,3.273,3.273,0,0,0,.854,1.328.78.78,0,0,0,.316.158c.306.065.613.1.919.158.381.065.752.139,1.142.214v.418c0,.093.009.158.139.167.2.019.39.065.585.074.5.028,1,.037,1.5.046a1.229,1.229,0,0,0,.307-.074c0-.019-.009-.037-.009-.056-.028-.009-.056-.028-.084-.037-.1-.019-.251-.009-.288-.065-.056-.065-.018-.2-.018-.3a.556.556,0,0,1,.018-.111c.046,0,.084-.009.121-.009.176.019.214-.037.186-.2-.056-.362-.065-.724-.093-1.1-.009-.139-.019-.288-.019-.436-.009-.446-.037-.9-.028-1.347.019-.483.074-.957.13-1.43a8.165,8.165,0,0,1,.139-.808c.037-.158-.009-.232-.177-.269a3.532,3.532,0,0,1-.771-.232,1.371,1.371,0,0,1-.817-.975c-.046-.158-.084-.316-.121-.492Zm19.077,7.142a.883.883,0,0,0,.112-.149,4.6,4.6,0,0,0,.2-.437c.121-.325.242-.659.344-.994.065-.223.121-.446.167-.678a2.836,2.836,0,0,0,.13-.715,6.8,6.8,0,0,0-.149-2.164c-.121-.362-.214-.743-.362-1.1a6.216,6.216,0,0,0-1.022-1.625,8.182,8.182,0,0,0-1.728-1.57,8.307,8.307,0,0,0-2.006-1.012,1.043,1.043,0,0,0-.167-.028c.019.056.028.111.046.167a6.245,6.245,0,0,1,.325.938,3.253,3.253,0,0,1,.028,1.272,6.388,6.388,0,0,1-.306,1.17c-.121.288-.121.288.121.511.167.149.344.288.511.446a13.022,13.022,0,0,1,2.118,2.471,16.478,16.478,0,0,1,1,1.82c.251.529.418,1.1.631,1.672Zm-12.436-6.919c.2.176.39.325.557.474a33.1,33.1,0,0,1,3.325,3.529c.1.121.195.167.334.046.232-.2.474-.362.7-.567.446-.418.873-.836,1.291-1.282a7.257,7.257,0,0,0,1.17-1.644c.139-.26.121-.251-.13-.437-.232-.167-.474-.334-.715-.474-.594-.334-1.18-.687-1.792-.975a18.312,18.312,0,0,0-1.839-.706c-.372-.13-.762-.214-1.142-.306a.193.193,0,0,0-.158.111c-.037.074-.019.167-.046.242a3.721,3.721,0,0,1-.873,1.393c-.232.2-.455.39-.678.594Zm.353,12.557c0-.762.019-1.514-.009-2.275a2.3,2.3,0,0,0-.2-.808,2.347,2.347,0,0,0-1.542-1.189,6.7,6.7,0,0,0-.873-.232,3.566,3.566,0,0,0-.817-.13,10.142,10.142,0,0,0-1.189.149c-.149.019-.121.13-.093.232.074.26.139.529.214.789.084.306.158.622.26.929.13.39.269.771.436,1.152a17.76,17.76,0,0,0,.827,1.755c.409.706.9,1.384,1.356,2.071a.527.527,0,0,0,.594.251,6.643,6.643,0,0,1,.845-.13c.167-.009.2-.065.2-.2-.009-.789,0-1.57,0-2.359Zm1.737,3.994c0,.362-.009.724.009,1.087a.267.267,0,0,0,.111.2,6.939,6.939,0,0,0,2.08.585,1.511,1.511,0,0,0,.5-.009,13.316,13.316,0,0,0,1.347-.418c.65-.251,1.282-.548,1.913-.827.093-.046.149-.1.056-.223-.279-.362-.529-.743-.8-1.115-.381-.539-.752-1.087-1.142-1.625-.223-.307-.232-.3-.585-.139-.687.288-1.365.585-2.062.845a9.294,9.294,0,0,1-1.226.362c-.186.037-.214.1-.2.251v1.022Zm-1.17-20.386a1.487,1.487,0,0,1,.65.919c.046.149.1.3.316.316a2.364,2.364,0,0,1,.446.084c.437.13.873.279,1.3.418a11.543,11.543,0,0,1,2.183.984c.567.334,1.114.7,1.662,1.059.13.084.186.074.223-.074a8.928,8.928,0,0,1,.251-1.012,2.338,2.338,0,0,0-.037-1.189,2.883,2.883,0,0,0-.613-1.254.618.618,0,0,0-.288-.251,7.571,7.571,0,0,0-1.012-.223c-.353-.046-.715-.037-1.068-.093a13.285,13.285,0,0,0-2.192.019.33.33,0,0,0-.093.019c-.279.037-.567.074-.845.13a7.607,7.607,0,0,0-.882.149ZM337.6,244.88c0,.056-.009.074,0,.093.232.269.446.539.687.789a13.26,13.26,0,0,0,3.241,2.471,11.6,11.6,0,0,0,2.127.9c.344.1.687.2,1.031.3.279.074.557.149.845.2.306.056.613.084.919.139.149.028.2-.009.2-.167-.009-.474,0-.938-.009-1.412a.39.39,0,0,0-.112-.241c-.362-.344-.734-.687-1.105-1.022a.306.306,0,0,0-.2-.074c-.223,0-.446.028-.678.019a11.681,11.681,0,0,1-2.275-.167c-.316-.065-.641-.084-.947-.167-.455-.121-.9-.26-1.347-.418A8.2,8.2,0,0,1,337.819,245c-.056-.037-.13-.065-.223-.121Zm8.712-6.8v.046a1.135,1.135,0,0,0,.176.019c1.347,0,2.7,0,4.049-.009a.3.3,0,0,1,.269.13c.26.353.52.706.789,1.059.325.436.65.873.975,1.3.344.455.678.91,1.022,1.356.223.288.446.576.659.873.065.084.111.084.186.028l.251-.167a.179.179,0,0,0,.074-.26c-.251-.455-.464-.929-.734-1.375-.65-1.049-1.319-2.1-2.006-3.13-.474-.7-1-1.365-1.514-2.043a.141.141,0,0,0-.214-.028c-.1.074-.214.149-.316.223a15.271,15.271,0,0,1-2.331,1.356c-.455.223-.9.418-1.337.622Zm5.6,6.381c-1.152-1.635-2.285-3.241-3.418-4.848-.028.009-.046.019-.074.028a1.259,1.259,0,0,0-.019.186v5.545c0,.381.009.4.381.288.474-.139.947-.288,1.412-.464.557-.223,1.1-.464,1.718-.734Zm5.916.882a.452.452,0,0,0,.065.028,12.02,12.02,0,0,0,2.8-6.083,11.094,11.094,0,0,0-.576-5.758.589.589,0,0,0-.046.214,8.917,8.917,0,0,1-.074,1.793c-.111.483-.167.984-.325,1.458-.186.567-.464,1.1-.687,1.653a1.024,1.024,0,0,0-.037.381c0,.056.046.1.046.158.028.492.074.984.074,1.477a10.151,10.151,0,0,1-.084,1.4,7.348,7.348,0,0,1-.3,1.245c-.167.52-.381,1.022-.585,1.532-.093.167-.2.334-.279.5Zm.789-6c-.046.009-.056.009-.065.019a13.026,13.026,0,0,1-2.034,2.545c-.353.344-.743.659-1.115.994a.271.271,0,0,0-.1.186c.065.2.176.39.251.594a8.606,8.606,0,0,1,.409,1.161,2.143,2.143,0,0,0,.474.938c.093.1.176.223.279.353a9.381,9.381,0,0,0,1.9-6.789Zm-18.046-10.3a1.319,1.319,0,0,0-.223.037c-.409.167-.827.316-1.207.511a14.737,14.737,0,0,0-1.532.9,3.725,3.725,0,0,0-.985,1.263,6.887,6.887,0,0,0-.947,2.275,9.106,9.106,0,0,0-.093,1.235.332.332,0,0,0,.037.1c.306-.511.585-1.022.892-1.514a10.185,10.185,0,0,1,1.4-1.765c.492-.483,1-.938,1.5-1.412a2.484,2.484,0,0,0,.427-.455c.158-.232.26-.5.4-.743.084-.13.2-.26.325-.436Zm5.275,1.988a21.856,21.856,0,0,0-2.74-2.015c-.121.232-.232.446-.344.669a13.352,13.352,0,0,0-.836,2.35c-.046.167-.009.251.139.26a3.782,3.782,0,0,0,1.375-.167,11.814,11.814,0,0,0,1.44-.557C345.2,231.423,345.5,231.218,345.844,231.033Zm7.049-4.161.028-.056a3.961,3.961,0,0,0-.409-.279c-.455-.214-.91-.437-1.384-.622a4.629,4.629,0,0,0-.873-.223c-.26-.046-.529-.056-.8-.093a5.951,5.951,0,0,0-2.4.1,5.434,5.434,0,0,0-1.709.8c-.149.1-.279.214-.418.316.009.019.009.028.019.046a1.383,1.383,0,0,0,.2-.019,2.893,2.893,0,0,1,1.291.084,2.107,2.107,0,0,0,.5.13,5.233,5.233,0,0,0,.762-.139c.223-.046.446-.093.669-.121.418-.037.845-.028,1.263-.1a14.619,14.619,0,0,1,2.21.028.217.217,0,0,1,.074.019c.26.046.529.084.789.13a1.238,1.238,0,0,0,.186,0Zm-6.8,4c.334-.353.678-.687.975-1.049a1.641,1.641,0,0,0,.437-1.068.231.231,0,0,0-.139-.167,3.556,3.556,0,0,0-.548-.084q-.515-.056-1.031-.084c-.529-.028-1.049-.056-1.579-.056a2.564,2.564,0,0,0-.743.139c-.093.028-.158.158-.2.26-.009.019.065.1.121.139a22.314,22.314,0,0,1,2.712,1.969Zm-3.158-1.95c-.009-.019-.028-.037-.037-.056a.745.745,0,0,0-.251.028,15.871,15.871,0,0,0-2.4,1.486.269.269,0,0,0-.111.139,1.224,1.224,0,0,0,.334,1.245,1.975,1.975,0,0,0,1.161.52,12.074,12.074,0,0,1,1.3-3.362Zm3.483-3.195c0-.009.009-.028.009-.037a1.494,1.494,0,0,0-.288,0c-.39.084-.789.176-1.179.279a10.43,10.43,0,0,0-1.3.381c-.752.307-1.486.65-2.22.994-.241.111-.464.269-.743.427.353.1.659.186.966.269a.241.241,0,0,0,.158-.028c.214-.121.418-.269.641-.381a6.723,6.723,0,0,1,1.644-.613,1.72,1.72,0,0,0,.817-.39,3.511,3.511,0,0,1,.52-.371c.325-.2.659-.353.975-.529Zm-4.969,2.554c0-.019-.009-.037-.009-.065a4.008,4.008,0,0,1-.455-.1,1.056,1.056,0,0,0-.985.13,12.887,12.887,0,0,0-1.913,1.635.429.429,0,0,0-.046.093c.037,0,.065,0,.074-.009.511-.26,1-.548,1.523-.789.372-.176.78-.269,1.152-.446a4.1,4.1,0,0,0,.659-.446Zm3.111-.26v.046a.568.568,0,0,0,.121.028c.548.028,1.105.037,1.653.074.344.028.678.084,1.012.13.084.009.186.019.139-.093a1.539,1.539,0,0,0-.752-.836.2.2,0,0,0-.13-.009c-.307.084-.613.176-.92.269-.372.121-.743.26-1.124.39Zm-.39-.752H344a.181.181,0,0,0-.074.009,8.01,8.01,0,0,0-1.774.789c-.046.028-.074.084-.149.167a2.624,2.624,0,0,0,.548.065,8.422,8.422,0,0,0,.845-.139.264.264,0,0,0,.1-.074c.158-.186.316-.372.464-.567.065-.074.13-.149.214-.251Zm2.043-.074c-.084-.046-.093-.056-.111-.065a5.178,5.178,0,0,0-1.467-.009.253.253,0,0,0-.111.056c-.223.232-.455.474-.669.706a.384.384,0,0,0-.028.121c.789-.26,1.57-.529,2.387-.808Zm2.183,21.909c0,.214,0,.437.009.669,0,.028.084.065.121.065.139-.009.279-.037.418-.056.483-.046.975-.1,1.458-.149.028,0,.056-.028.065-.028-.669-.167-1.347-.334-2.071-.5Zm-8.052-19.151c.046-.028.084-.046.13-.074.613-.371,1.226-.743,1.83-1.124a.592.592,0,0,0,.093-.121.5.5,0,0,0-.186-.046c-.2.037-.409.074-.6.13a1.386,1.386,0,0,0-.539.2,2.775,2.775,0,0,0-.724,1.031Zm6.288,17.73V246.7c-.279.176-.613-.019-.845.186C346.076,247.156,346.345,247.407,346.633,247.685Zm8.916-3.1c.018,0,.037-.009.065-.009a.609.609,0,0,0,0-.13l-.446-1.087c-.019-.056-.074-.093-.112-.139a1.729,1.729,0,0,0-.3.214c-.019.019.019.1.046.149.084.121.167.241.251.353C355.215,244.147,355.382,244.37,355.549,244.583Zm-.437-17.071a3.9,3.9,0,0,0-1.57-.762,2.071,2.071,0,0,0,.446.381C354.332,227.28,354.7,227.373,355.113,227.513Zm-19.29,10.058c.009-.019.009-.037.019-.056-.121-.158-.232-.316-.381-.511-.028.2-.046.325-.074.492.139.019.288.046.437.074Zm-.734-.771c.019-.149.186-.269.074-.483C335.051,236.494,335,236.633,335.089,236.8Z" transform="translate(-297.093 -225.2)" fill="#fff"/>
    <path id="Trazado_66" data-name="Trazado 66" d="M68.655,754.925c-.037-.019-.074-.056-.111-.056a2.344,2.344,0,0,0-.269-.037c-.929-.028-1.848-.046-2.777-.084-.743-.028-1.486-.083-2.229-.13-.037,0-.074-.009-.111-.009-.854-.028-1.709-.046-2.563-.074-.752-.028-1.514-.084-2.266-.13-.028,0-.056-.009-.074-.009-.808-.028-1.616-.046-2.424-.084l-3.464-.139-1.941-.084-1.235-.056c-.854-.046-1.718-.1-2.573-.139s-1.737-.047-2.6-.084c-.715-.028-1.421-.084-2.136-.121-.028,0-.065-.009-.093-.009-.734-.028-1.477-.046-2.21-.084-.9-.037-1.793-.084-2.693-.13-.028,0-.065-.009-.093-.009-.771-.028-1.542-.046-2.313-.084-.836-.037-1.681-.084-2.517-.13-.037,0-.074-.009-.111-.009-.864-.028-1.718-.046-2.582-.084-.762-.028-1.523-.083-2.285-.13-.037,0-.074-.009-.111-.009-.854-.028-1.709-.047-2.563-.074A1.155,1.155,0,0,1,24,752.9h89.709v.037c-.149,0-.3-.009-.446,0l-2.87.139h-.037c-.7.028-1.384.046-2.08.074-.882.037-1.765.093-2.656.139-.046,0-.093.009-.139.009-.854.028-1.709.047-2.563.084-1.142.047-2.285.112-3.427.158-.994.046-1.988.084-2.981.13-1.142.056-2.285.111-3.427.158l-1.384.056c-1.133.056-2.266.112-3.409.158-.539.028-1.077.046-1.616.074s-1.068.047-1.6.074c-.3.018-.585.037-.882.046-.854.046-1.718.093-2.573.13-.455.019-.91.019-1.365.037-.539.018-1.077.046-1.616.074-.26.009-.511.037-.771.047-.892.046-1.783.093-2.675.13-.446.019-.9.019-1.347.037-.529.019-1.068.046-1.6.074-.483.018-.966.028-1.44.056a2.583,2.583,0,0,0-.464.1Z" transform="translate(-22.681 -703.889)" fill="#fff"/>
    <path id="Trazado_67" data-name="Trazado 67" d="M37.514,380.709c-.167-.074-.344-.13-.5-.214-.325-.186-.632-.409-.957-.585a2.777,2.777,0,0,0-1.282-.371q-.334-.014-.669-.056c-.028,0-.074-.046-.084-.074-.334-.827-.669-1.653-1.012-2.48-.3-.724-.613-1.44-.91-2.164s-.576-1.44-.873-2.155-.6-1.449-.91-2.173c-.111-.279-.223-.557-.325-.836a.249.249,0,0,0-.269-.176c-.9-.037-1.811-.093-2.712-.13-.474-.019-.957-.009-1.43-.009h-2.34a.233.233,0,0,0-.251.158c-.362.827-.752,1.644-1.124,2.461s-.734,1.662-1.105,2.489l-1.7,3.734c-.2.436-.4.873-.6,1.3a.168.168,0,0,1-.13.093c-.65.009-1.3,0-1.95,0-.009,0-.019-.009-.046-.028.139-.3.269-.6.409-.9.353-.771.706-1.532,1.059-2.294.316-.687.65-1.375.966-2.062s.632-1.365.947-2.053c.241-.529.492-1.068.734-1.6.158-.344.325-.7.483-1.04.056-.13.019-.186-.13-.177-.669.046-1.347.084-2.015.139-.52.037-1.04.084-1.56.149-.5.056-.994.139-1.5.2-.427.056-.864.093-1.291.158-.372.056-.734.139-1.105.2-.334.056-.669.093-.994.158-.269.046-.548.111-.817.158a.42.42,0,0,1-.186-.009,1,1,0,0,0-.715.028,3.925,3.925,0,0,1-.576.1.629.629,0,0,1-.241-.074c.418-.111.808-.214,1.189-.316.344-.084.687-.149,1.031-.232s.678-.186,1.022-.269.687-.158,1.031-.242l.771-.2c.26-.065.52-.111.78-.167l.845-.2.836-.167.984-.2c.158-.028.306-.065.464-.093.372-.056.743-.093,1.115-.158.409-.065.817-.13,1.226-.2.009,0,.028-.009.037-.009.455.1.539-.223.669-.492.409-.882.817-1.755,1.217-2.638.4-.864.789-1.727,1.189-2.591.2-.418.4-.827.567-1.254a4.536,4.536,0,0,0,.223-.864.343.343,0,0,0-.2-.362,3.767,3.767,0,0,0-1.263-.427c-.316-.065-.632-.139-.947-.2-.158-.028-.316-.056-.464-.084-.232-.028-.464-.046-.7-.084s-.446-.084-.669-.121c-.2-.037-.4-.074-.6-.093-.26-.019-.279-.037-.279-.279V358.4h8.136a.25.25,0,0,1,.279.176c.362.892.752,1.774,1.124,2.666.362.854.724,1.718,1.077,2.573.269.641.529,1.291.789,1.932.306.743.613,1.486.938,2.229a.343.343,0,0,0,.232.149c.427.037.854.046,1.282.093.316.028.632.084.947.13l.669.084c.288.028.576.046.854.084.241.028.483.084.734.121l.529.084.659.084.529.084c.381.065.762.13,1.133.2.4.084.8.176,1.2.269.269.056.548.1.817.167.316.074.632.149.957.232s.641.177.966.269c.455.139.919.269,1.365.418.567.186,1.133.371,1.681.594.8.325,1.588.659,2.35,1.05a13.091,13.091,0,0,1,1.635.975,6.473,6.473,0,0,1,2.164,2.294,3.082,3.082,0,0,1,.362,1.737,3.52,3.52,0,0,1-.613,1.625,6.9,6.9,0,0,1-1.625,1.662,14.368,14.368,0,0,1-2.8,1.607c-.687.307-1.384.594-2.09.854-.539.2-1.1.362-1.644.529-.455.139-.91.279-1.375.409a.416.416,0,0,1-.214,0c.325-.13.659-.241.984-.381.715-.316,1.449-.622,2.136-.984a12.672,12.672,0,0,0,1.644-.994,16.825,16.825,0,0,0,1.393-1.189A4.675,4.675,0,0,0,50.025,379a3.16,3.16,0,0,0,.372-1.616,3.217,3.217,0,0,0-.789-1.932,8.2,8.2,0,0,0-2.136-1.811,19.563,19.563,0,0,0-3.241-1.542c-.6-.232-1.226-.409-1.839-.594-.464-.149-.938-.288-1.412-.418-.446-.121-.91-.2-1.356-.307-.39-.093-.771-.2-1.161-.269-.306-.065-.622-.1-.938-.158-.344-.065-.687-.13-1.022-.2-.167-.028-.334-.065-.5-.084-.409-.056-.817-.1-1.226-.158-.269-.037-.539-.093-.808-.121s-.557-.065-.836-.093c-.149-.009-.176.046-.121.176.223.529.446,1.059.659,1.588s.437,1.031.65,1.551c.2.474.39.947.594,1.421s.4.919.594,1.375c.214.511.418,1.022.632,1.542l.752,1.783c.2.464.381.929.567,1.393.019.046.046.093.065.139.009.009,0,.028-.009.037ZM26.666,361.484h-.056c-.037.1-.074.214-.121.316-.529,1.161-1.068,2.322-1.6,3.483-.372.827-.734,1.662-1.115,2.48-.084.176-.019.186.13.176.306-.019.613-.074.919-.065,1.319.009,2.638.046,3.947.065h.548c-.9-2.183-1.783-4.319-2.656-6.455Z" transform="translate(-9.8 -346.029)" fill="#fff"/>
    <path id="Trazado_68" data-name="Trazado 68" d="M798.264,385.079V367.628a1.633,1.633,0,0,0-.7-1.263,4.881,4.881,0,0,0-1.662-.78,10.8,10.8,0,0,0-1.087-.241c-.344-.074-.7-.139-1.05-.2-.214-.037-.436-.056-.669-.084V364.6h17.479c.028.26.074.52.084.78.037.9.056,1.8.084,2.7.009.13-.028.186-.176.177-.176-.009-.344,0-.52,0-.278,0-.316-.065-.353-.325a3.306,3.306,0,0,0-.474-1.43,1.557,1.557,0,0,0-.882-.585,7.465,7.465,0,0,0-2.034-.214q-1.5-.014-3.009,0a7.253,7.253,0,0,0-1.1.074,1.029,1.029,0,0,0-.91.613,1.7,1.7,0,0,0-.121.52c-.009,2.359,0,4.709-.009,7.068,0,.176.065.2.232.2,1.793-.009,3.594,0,5.387-.009.186,0,.242.046.232.223-.009.353-.009.715,0,1.068.009.167-.046.214-.223.214-1.774-.009-3.557,0-5.331,0-.3,0-.3,0-.3.288v6.771a1.34,1.34,0,0,0,.223.743.69.69,0,0,0,.492.306,7.918,7.918,0,0,0,1.235.1c1.44.009,2.87,0,4.309.009a3.431,3.431,0,0,0,2.062-.743,7.7,7.7,0,0,0,1.551-1.607,5.059,5.059,0,0,1,.353-.455c-.074,1.31-.139,2.628-.214,3.957-4.3.028-8.591.028-12.91.028Z" transform="translate(-720.35 -351.653)" fill="#fff"/>
    <path id="Trazado_69" data-name="Trazado 69" d="M731.852,672.84c-.065.186-.13.362-.186.548-.111.353-.223.715-.334,1.068-.093.3-.093.3-.427.3h-.2c.2-.6.409-1.18.6-1.755.121-.353.214-.706.334-1.05a.244.244,0,0,1,.149-.139c.214-.018.418-.009.659-.009a3.914,3.914,0,0,0,.455,2.331c.074-.2.139-.362.2-.529.121-.362.251-.715.362-1.087a3.99,3.99,0,0,0,.121-.576c.009-.1.028-.158.158-.149.158.009.316,0,.492,0-.093.288-.186.548-.269.808-.121.353-.232.7-.353,1.049-.093.26-.186.529-.269.79-.009.018-.019.028-.028.046-.019.111-.019.241-.186.251-.2.009-.4.028-.539-.176a4.166,4.166,0,0,1-.557-1.245,1.657,1.657,0,0,1-.009-.214,1.486,1.486,0,0,0-.093-.288.1.1,0,0,1-.074.028Z" transform="translate(-663.746 -630.312)" fill="#fff"/>
    <path id="Trazado_70" data-name="Trazado 70" d="M277.435,672.1h.539a3.413,3.413,0,0,1-.093.362c-.2.6-.409,1.217-.613,1.82-.074.223-.149.446-.232.678-.009.019-.019.047-.037.056a.679.679,0,0,1-.567-.074,2.77,2.77,0,0,1-.594-1.272,4.348,4.348,0,0,0-.149-.65c-.065.176-.13.344-.186.52-.093.269-.176.539-.251.817a3.624,3.624,0,0,0-.13.548c-.019.093-.028.148-.139.139-.139-.009-.279,0-.483,0,.334-1,.65-1.969.975-2.944h.715c0,.065.009.121.009.177a4.7,4.7,0,0,0,.167,1.44,3.221,3.221,0,0,0,.232.557c.009.028.065.056.084.047a.163.163,0,0,0,.093-.084c.139-.427.269-.845.4-1.272.074-.279.167-.557.26-.864Z" transform="translate(-249.916 -630.594)" fill="#fff"/>
    <path id="Trazado_71" data-name="Trazado 71" d="M953.319,672h1.82c.037,0,.093.019.1.046a1.866,1.866,0,0,1,.26,1.421,1.935,1.935,0,0,1-1.263,1.347,2.418,2.418,0,0,1-.678.167c-.371.028-.752.009-1.161.009.279-1.012.706-1.96.919-2.991Zm1.653,1.217c0-.177.009-.316,0-.464-.019-.269-.13-.362-.409-.362-.2,0-.409-.009-.613.009a.215.215,0,0,0-.177.112c-.111.279-.2.566-.306.854-.121.353-.214.715-.344,1.068-.046.13-.019.167.1.149a4.029,4.029,0,0,0,.669-.121,1.4,1.4,0,0,0,1.077-1.245Z" transform="translate(-864.855 -630.503)" fill="#fff"/>
    <path id="Trazado_72" data-name="Trazado 72" d="M790.419,672h1.82a.235.235,0,0,1,.139.093,1.893,1.893,0,0,1,.251,1.319,1.683,1.683,0,0,1-.622,1.022,2.036,2.036,0,0,1-1.133.5c-.446.037-.892.065-1.374.1.037-.158.065-.269.093-.381.2-.585.409-1.161.594-1.746.1-.288.149-.585.232-.91Zm-.214,2.526c.009.028.028.046.037.074.26-.047.52-.084.771-.149a1.45,1.45,0,0,0,.892-.687,1.4,1.4,0,0,0,.139-1.124.28.28,0,0,0-.344-.251c-.223.018-.446,0-.678.009a.208.208,0,0,0-.158.065c-.065.167-.112.344-.167.511-.093.279-.186.548-.279.827a7.109,7.109,0,0,1-.214.724Z" transform="translate(-717.085 -630.503)" fill="#fff"/>
    <path id="Trazado_73" data-name="Trazado 73" d="M898.1,674.709c.316-.985.632-1.95.957-2.944h.6a5.806,5.806,0,0,0,.7-.009.368.368,0,0,1,.437.269.986.986,0,0,1-.585,1.365c-.084.037-.176.074-.26.1a1.117,1.117,0,0,0,.306.659.83.83,0,0,0,.734.214c-.046.149-.083.26-.111.381A1.135,1.135,0,0,1,899.54,674a1.983,1.983,0,0,1-.084-.251c-.046-.13-.149-.149-.278-.139-.1.009-.214-.019-.232.139a4.553,4.553,0,0,1-.139.474c-.046.158-.074.306-.111.483Zm1.012-1.467c.232-.037.427-.065.622-.1a.751.751,0,0,0,.622-.6c.028-.149-.065-.362-.167-.372q-.307-.014-.613,0a.175.175,0,0,0-.139.111c-.111.306-.2.6-.325.966Z" transform="translate(-815.598 -630.277)" fill="#fff"/>
    <path id="Trazado_74" data-name="Trazado 74" d="M463.985,675.126H463.4c.316-.984.632-1.941.947-2.926h.539c-.074.242-.158.474-.232.715-.037.112-.084.214-.111.325s0,.2.158.186c.288-.009.576-.009.873,0a.209.209,0,0,0,.223-.158q.153-.516.306-1.059h.567l-.957,2.926h-.529c.028-.121.056-.232.093-.344.093-.26.186-.529.279-.789.037-.111.009-.176-.121-.176h-.947a.166.166,0,0,0-.186.139c-.084.288-.2.567-.279.845a1.4,1.4,0,0,0-.037.316Z" transform="translate(-421.272 -630.684)" fill="#fff"/>
    <path id="Trazado_75" data-name="Trazado 75" d="M338.034,671.6a3.109,3.109,0,0,1-.139.418.278.278,0,0,1-.2.084c-.241.009-.483-.009-.724.009a1.137,1.137,0,0,0-.994.678,1.223,1.223,0,0,0,.158,1.319.2.2,0,0,0,.269.065,1.457,1.457,0,0,0,.864-.567c.093-.149.028-.167-.1-.167h-.548c.046-.13.074-.232.111-.344h1.254a1.9,1.9,0,0,1-.334.827,2.123,2.123,0,0,1-1.087.66c-.149.046-.306.084-.455.121a.183.183,0,0,1-.139-.028,1.819,1.819,0,0,1-.669-1.263,1.537,1.537,0,0,1,.353-1.087,1.673,1.673,0,0,1,1.059-.594,11.943,11.943,0,0,1,1.328-.13Z" transform="translate(-305.063 -630.14)" fill="#fff"/>
    <path id="Trazado_76" data-name="Trazado 76" d="M674.5,674.948q.209-.293.418-.557c.381-.5.771-.994,1.152-1.5.2-.26.4-.52.6-.78a.161.161,0,0,1,.1-.056c.2-.009.4,0,.613,0a5.614,5.614,0,0,0-.047,2.907q-.153.042-.279.083a.208.208,0,0,1-.3-.186c-.028-.167-.047-.344-.084-.511a.149.149,0,0,0-.121-.083q-.432-.014-.864,0a.2.2,0,0,0-.139.093c-.149.186-.288.381-.427.576a.246.246,0,0,1-.344.093,1.056,1.056,0,0,0-.288-.084Zm2.22-2.108-.028-.028c-.242.325-.492.659-.771,1.04.2,0,.353-.009.5,0,.186.019.232-.065.241-.214.019-.269.037-.529.056-.8Z" transform="translate(-612.765 -630.553)" fill="#fff"/>
    <path id="Trazado_77" data-name="Trazado 77" d="M844.47,674.988c-.1.028-.176.046-.251.065-.214.074-.316.018-.344-.186a2.456,2.456,0,0,0-.083-.455.189.189,0,0,0-.149-.111q-.4-.014-.808,0c-.2,0-.214.2-.316.3-.121.121-.2.279-.316.4a.389.389,0,0,1-.251.083,2.224,2.224,0,0,1-.353-.093l.464-.6c.306-.4.6-.8.91-1.2.269-.353.539-.7.808-1.04a.114.114,0,0,1,.093-.046h.632a5.445,5.445,0,0,0-.037,2.888Zm-1.421-1.1c.223,0,.4-.009.576,0,.13.009.176-.046.176-.167.009-.279.047-.557.065-.836,0-.009-.028-.019-.056-.047-.241.344-.483.669-.762,1.049Z" transform="translate(-764.346 -630.594)" fill="#fff"/>
    <path id="Trazado_78" data-name="Trazado 78" d="M521.811,674.617c.037.316-.056.427-.353.427H520c.26-1,.7-1.932.9-2.944h1.728c-.037.13-.074.251-.121.381-.325,0-.65-.009-.966.009a.286.286,0,0,0-.214.111c-.093.223-.158.455-.241.724h1.133a1.582,1.582,0,0,1-.1.316.224.224,0,0,1-.176.074c-.214.009-.427,0-.641,0-.4,0-.409.009-.483.372a1.729,1.729,0,0,1-.121.371c-.056.121-.009.149.112.149h.789a1.719,1.719,0,0,0,.214.009Z" transform="translate(-472.615 -630.594)" fill="#fff"/>
    <path id="Trazado_79" data-name="Trazado 79" d="M102.61,673.335c-.009.065-.028.111-.037.158-.028.158-.093.251-.288.232-.214-.019-.437,0-.659,0-.288,0-.306.009-.372.269-.037.139-.093.279-.139.418s-.009.2.158.2h.984a1.985,1.985,0,0,1-.074.3.226.226,0,0,1-.158.121c-.529.009-1.049.009-1.625.009.325-.994.641-1.96.957-2.944h1.681a1.477,1.477,0,0,1-.093.307.223.223,0,0,1-.176.074c-.223.009-.446,0-.678,0-.344,0-.344,0-.437.307l-.139.418c-.046.13.046.13.13.13Z" transform="translate(-91.985 -630.594)" fill="#fff"/>
    <path id="Trazado_80" data-name="Trazado 80" d="M52.135,674.061a6.543,6.543,0,0,0,.752.167.9.9,0,0,0,.427-.121c.241-.121.269-.214.121-.437-.158-.241-.371-.455-.529-.7a5.543,5.543,0,0,1-.325-.613.146.146,0,0,1,.056-.121,1.773,1.773,0,0,1,1.022-.539c.306-.037.613-.065.994-.1a3.024,3.024,0,0,1-.167.455c-.019.037-.149.037-.223.028a1.634,1.634,0,0,0-.817.13c-.279.13-.3.279-.065.539a6.471,6.471,0,0,1,.511.622,2.471,2.471,0,0,1,.241.557c.009.028-.028.093-.046.121a1.542,1.542,0,0,1-1.421.6,3.2,3.2,0,0,1-.641-.149.168.168,0,0,1-.065-.158,1.3,1.3,0,0,1,.176-.288Z" transform="translate(-48.039 -630.14)" fill="#fff"/>
    <path id="Trazado_81" data-name="Trazado 81" d="M588.1,674.451c.093-.158.177-.288.241-.381a4.255,4.255,0,0,0,.79.158,1.412,1.412,0,0,0,.548-.2.2.2,0,0,0,.037-.214c-.139-.232-.316-.446-.464-.669a5.506,5.506,0,0,1-.409-.622.322.322,0,0,1,.056-.3,1.591,1.591,0,0,1,.957-.511c.325-.047.659-.074,1.022-.112-.074.2-.121.344-.167.474a5.183,5.183,0,0,0-.669.037,2.523,2.523,0,0,0-.557.2.155.155,0,0,0-.028.167c.186.26.39.5.576.762a3.1,3.1,0,0,1,.307.576.309.309,0,0,1-.084.316,1.8,1.8,0,0,1-1.69.5,3.014,3.014,0,0,1-.464-.186Z" transform="translate(-534.39 -630.14)" fill="#fff"/>
    <path id="Trazado_82" data-name="Trazado 82" d="M422.428,675.044c.074-.223.13-.418.195-.6l.279-.808c.093-.279.177-.557.279-.827.074-.2.056-.251-.186-.26H422.4c.056-.158.093-.3.139-.446H424.8a1.98,1.98,0,0,1-.084.279.229.229,0,0,1-.269.167c-.149-.019-.3.009-.446-.009a.226.226,0,0,0-.26.167c-.139.427-.269.864-.409,1.291-.084.26-.167.52-.26.78-.028.084-.037.2-.093.251s-.186.018-.279.018Z" transform="translate(-384.079 -630.594)" fill="#fff"/>
    <path id="Trazado_83" data-name="Trazado 83" d="M641.322,674.894h-.548c.037-.139.056-.269.093-.39.2-.576.4-1.152.6-1.737.009-.037.009-.074.019-.112.065-.251.065-.251-.223-.251H640.7a3.6,3.6,0,0,1,.149-.362.207.207,0,0,1,.158-.084c.678-.009,1.347,0,2.025,0,.028,0,.046.009.084.009-.046.149-.1.288-.149.446h-.474c-.4,0-.39,0-.5.362-.139.455-.3.91-.446,1.375-.084.242-.149.483-.223.743Z" transform="translate(-582.105 -630.463)" fill="#fff"/>
    <path id="Trazado_84" data-name="Trazado 84" d="M196.594,674.944h-.622c.269-.827.539-1.644.827-2.489h-.622c-.251,0-.223,0-.176-.223s.176-.232.362-.232c.576.009,1.161,0,1.737,0h.186c.046.316-.074.455-.381.455a2.607,2.607,0,0,1-.269,0,.3.3,0,0,0-.39.241c-.13.427-.269.864-.409,1.291-.065.195-.139.381-.2.567-.028.121-.028.251-.046.39Z" transform="translate(-178.678 -630.503)" fill="#fff"/>
    <path id="Trazado_85" data-name="Trazado 85" d="M153.415,672c-.065.158-.111.3-.167.446h-.65a.222.222,0,0,0-.251.2c-.084.288-.186.567-.279.845l-.334,1.031c-.037.111-.046.232-.074.344a.134.134,0,0,1-.1.084c-.149.009-.306,0-.492,0,.037-.13.056-.242.093-.353.149-.427.3-.855.446-1.272.084-.232.158-.474.232-.706.028-.1-.009-.158-.139-.158H151q.084-.237.167-.446c.743-.009,1.486-.009,2.248-.009Z" transform="translate(-137.886 -630.503)" fill="#fff"/>
    <path id="Trazado_86" data-name="Trazado 86" d="M237.657,672h.4a1.073,1.073,0,0,1,.149.019c-.269.984-.706,1.913-.9,2.926h-.6c.316-.975.632-1.941.957-2.944Z" transform="translate(-215.626 -630.503)" fill="#fff"/>
  </g>
</svg>
