<svg id="Capa_2" data-name="Capa 2" xmlns="http://www.w3.org/2000/svg" width="87.821" height="52.039" viewBox="0 0 87.821 52.039">
  <g id="Capa_1" data-name="Capa 1" transform="translate(0 0)">
    <path id="Trazado_103" data-name="Trazado 103" d="M263.315,282.586l-.8,8.923h-2.386l3.181-8.923Zm-11.485,15.55h6.008l1.059-3.006h3.18l-.176,3h6.008L268,279.053h-8.039Zm20.762-19.083h7.6l.794,11.574h.089l2.473-11.574H288.5l-4.061,19.083h-7.513l-.972-11.221-2.386,11.221h-5.037Zm24.562,5.3a4.641,4.641,0,0,0,.088-1.5c-.089-.354-.44-.53-1.061-.53s-1.149.707-1.325,1.413c-.8,3.535,7.863,1.5,6.362,8.394-1.061,5.037-4.417,6.625-8.128,6.625-3.8,0-7.51-.617-6.1-6.1h5.743a6.344,6.344,0,0,0-.088,1.767c.089.442.264.7.8.7a1.867,1.867,0,0,0,1.679-1.589c.884-4.241-7.775-1.5-6.273-8.482.972-4.6,3.711-6.538,8.128-6.538,5.566,0,6.185,2.65,5.566,5.831Zm8.57-5.3h5.832l-4.064,19.085h-5.92Z" transform="translate(-236.015 -261.029)" fill="#fff" fill-rule="evenodd"/>
    <path id="Trazado_104" data-name="Trazado 104" d="M4.773,32.336c0-16.081,21.29-29.157,47.619-29.157,14.048,0,26.682,3.711,35.429,9.631C79.163,5.124,64.585,0,48.151,0,21.558,0,0,13.164,0,29.421c0,9.1,6.8,17.229,17.317,22.618C9.542,46.912,4.773,39.934,4.773,32.336Z" transform="translate(0 0)" fill="#fff" fill-rule="evenodd"/>
  </g>
</svg>
