<svg xmlns="http://www.w3.org/2000/svg" width="188.335" height="51.035" viewBox="0 0 188.335 51.035">
  <g id="Grupo_51" data-name="Grupo 51" transform="translate(0 0)">
    <g id="logo-es" transform="translate(0 0)">
      <path id="Trazado_53" data-name="Trazado 53" d="M6.26,13.963l2.716-2.274.93-.851a3.3,3.3,0,0,0,.61-.851,10.192,10.192,0,0,0,.5-1.243L11.7,6.716h-.073a4.85,4.85,0,0,1-1.254,1.775A18.755,18.755,0,0,1,8.73,9.734a15.39,15.39,0,0,0-1.786,1.422A7.566,7.566,0,0,0,5.33,13.4v-.073L6.294,10.2l.56-2.24a7.516,7.516,0,0,1,.638-1.68A4.4,4.4,0,0,1,8.741,4.941V4.868A5.365,5.365,0,0,0,5.6,7.142,6.9,6.9,0,0,0,4.4,11.123v4.967A7.868,7.868,0,0,1,6.26,13.963ZM9.62,7.886a23.807,23.807,0,0,0,1.809-2.095L13,3.776a11.761,11.761,0,0,1,1.68-1.742L14.6,1.961a4.027,4.027,0,0,1-1.613.834,8.96,8.96,0,0,0-2.022.924A7.157,7.157,0,0,0,8.909,5.747,12.64,12.64,0,0,0,7.229,9.83,13.833,13.833,0,0,0,9.62,7.886ZM1.651,26.462a20.862,20.862,0,0,0,1.59,2.095,16.207,16.207,0,0,1,1.73,2.526h.073a7.118,7.118,0,0,1-.09-1.12V28.955a7.476,7.476,0,0,1,.4-1.882l.84-2.912.767-3.231a9.52,9.52,0,0,0,.185-2.912h-.09a6.054,6.054,0,0,1-.75,1.809L5.19,21.674a13.776,13.776,0,0,0-1,2.061,6.508,6.508,0,0,0-.426,2.38,5.679,5.679,0,0,0,.162,1.165,6.838,6.838,0,0,1,.168.89H4.037a17.568,17.568,0,0,0-.8-2.974L2.205,22.565l-.868-2.207A5.219,5.219,0,0,1,.99,18.723l.045-1.12a7.323,7.323,0,0,0,.045-1.064H1.012a16.156,16.156,0,0,0-.56,1.848,8.854,8.854,0,0,0-.342,2.274A11.374,11.374,0,0,0,.52,24.077a9.431,9.431,0,0,0,1.131,2.386ZM14.565,45.716a6.76,6.76,0,0,0,.778.034,7.915,7.915,0,0,0,1.064-.067l1.277-.213L19.712,45l3.3-.818-2.341-.672a5.315,5.315,0,0,1-1.988-1.232l-2.408-2.2-1.921-1.714L12.975,37.12l-.067.073c.112.168.98,1.926.98,1.926l.2.291.7,1.271.263.5a3.87,3.87,0,0,0,1.2,1.372,7.7,7.7,0,0,0,2.985,1.484v.073l-2.649-.426c-.319-.056-.689-.078-1.042-.112l-1.277-.112-1.008-.151-.98-.112-.515-.056a11.615,11.615,0,0,1-1.781-.319,6.16,6.16,0,0,1-1.607-.672,10.08,10.08,0,0,1-1.714-1.316l-.073.073a8.893,8.893,0,0,0,.963,1.35,11.239,11.239,0,0,0,1.467,1.417A8.428,8.428,0,0,0,11.121,44.9a11.346,11.346,0,0,0,2.8.722ZM3.5,23.478h.09a6.776,6.776,0,0,1,.207-1.12,6.16,6.16,0,0,1,.526-1.2,18.627,18.627,0,0,1,1.086-1.68q.706-.991,1.9-2.7a9.229,9.229,0,0,0,1.12-2.487L9,12.232H8.926a2.845,2.845,0,0,1-.319.6,7.124,7.124,0,0,1-.454.56,10.08,10.08,0,0,1-.739.745l-1.232,1.12A6.8,6.8,0,0,0,4.356,17.6a15.16,15.16,0,0,0-.7,2.341H3.6c0-.375.056-.745.067-1.12V17.435c0-.706-.045-1.534-.14-2.487s-.129-2.173-.129-3.7a3.259,3.259,0,0,1,.28-1.35q.28-.638.487-1.21H4.109a11.945,11.945,0,0,0-2.044,3.623,10.7,10.7,0,0,0-.56,3.3,10.226,10.226,0,0,0,.739,3.707A30.387,30.387,0,0,1,3.5,23.478ZM10.9,41.88l4.514,1.03A12.5,12.5,0,0,1,13.9,40.878a10.153,10.153,0,0,1-.924-1.954q-.426-1.159-1.21-3.086a9.212,9.212,0,0,0-.459-1.12q-.252-.493-.56-1.025l-.784-1.215L8.786,30.8l-.073.073c.14.47.336,1.327.6,2.554l.745,3.483a5.281,5.281,0,0,0,.958,2.24,12.505,12.505,0,0,0,1.949,2.095l-.073.073a6.306,6.306,0,0,1-1.714-1.12,12.528,12.528,0,0,0-2.571-1.635,38.417,38.417,0,0,1-4.245-2.38,6.373,6.373,0,0,1-2.319-2.8l-.073.067a10.641,10.641,0,0,0,1.31,3.17A11.335,11.335,0,0,0,5.4,39.1a12.209,12.209,0,0,0,2.643,1.775,11.47,11.47,0,0,0,2.862,1ZM4.261,34.56l5.264,3.483L8.931,36.7a8.076,8.076,0,0,1-.4-1.417l-.241-1.736-.241-2.307-.487-3.623A15.059,15.059,0,0,0,6.8,24.844H6.725a16.572,16.572,0,0,1-.1,2.044,13.838,13.838,0,0,1-.286,1.568l-.28,1.31a7.84,7.84,0,0,0-.106,1.383,6.16,6.16,0,0,0,.459,2.027A17.736,17.736,0,0,0,7.285,35.2l-.067.073a20.654,20.654,0,0,0-2.38-3.159L2.709,29.839a16.325,16.325,0,0,1-1.635-2.027,5.819,5.819,0,0,1-.885-2.487A5.78,5.78,0,0,0,.055,26a5.141,5.141,0,0,0-.045.672,7.493,7.493,0,0,0,.42,2.442,11.889,11.889,0,0,0,1.064,2.307,11.514,11.514,0,0,0,1.383,1.893A7.4,7.4,0,0,0,4.261,34.56Zm43.178-30.8,1.568,2.027a25.54,25.54,0,0,0,1.809,2.095,13.609,13.609,0,0,0,2.391,1.966,12.64,12.64,0,0,0-1.68-4.083,7.129,7.129,0,0,0-2.072-2.022A8.961,8.961,0,0,0,47.433,2.8a4.172,4.172,0,0,1-1.6-.851l-.073.073a11.693,11.693,0,0,1,1.674,1.758Zm4.648,38.407a6.345,6.345,0,0,1-1.607.678,13.089,13.089,0,0,1-1.786.319l-.5.056-.986.112-1,.151c-.336.056-.857.09-1.277.112l-1.042.112-1.12.168-1.529.246v-.067a7.7,7.7,0,0,0,2.951-1.5,3.92,3.92,0,0,0,1.176-1.366l.263-.5.7-1.266a2.968,2.968,0,0,1,.2-.291l.98-1.932-.067-.073q-.672.652-1.383,1.26l-1.921,1.708-2.408,2.184a5.337,5.337,0,0,1-1.96,1.249l-2.341.672,3.3.818,2.016.459,1.288.213a7.06,7.06,0,0,0,1.064.073l.784-.034.672-.073a11.346,11.346,0,0,0,2.8-.722,8.708,8.708,0,0,0,2.106-1.226,11.262,11.262,0,0,0,1.5-1.434,8.625,8.625,0,0,0,.963-1.35l-.112-.045A10.294,10.294,0,0,1,52.087,42.166Zm3.976-5.992a39.358,39.358,0,0,1-4.245,2.38,12.075,12.075,0,0,0-2.571,1.635,6.451,6.451,0,0,1-1.714,1.12l-.073-.073a12.953,12.953,0,0,0,1.949-2.094,5.337,5.337,0,0,0,.958-2.24q.364-1.624.745-3.472l.6-2.559-.073-.056-1.176,1.68-.784,1.2a11.4,11.4,0,0,0-.571,1.036,8.871,8.871,0,0,0-.459,1.12l-1.215,3.091a10.081,10.081,0,0,1-.918,1.932,12.729,12.729,0,0,1-1.512,2l1.546-.325,2.968-.65a11.47,11.47,0,0,0,2.862-1.03,12.393,12.393,0,0,0,2.643-1.77,11.335,11.335,0,0,0,2.1-2.475,10.781,10.781,0,0,0,1.322-3.2l-.073-.073a6.384,6.384,0,0,1-2.307,2.806Zm2.184-13.609q-.56,1.21-1.064,2.632a17.713,17.713,0,0,0-.8,2.985h-.067a6.839,6.839,0,0,1,.168-.89,5.6,5.6,0,0,0,.168-1.17,6.53,6.53,0,0,0-.426-2.38,14.051,14.051,0,0,0-1-2.061L54.1,19.832a6.16,6.16,0,0,1-.75-1.814H53.28a9.521,9.521,0,0,0,.185,2.912q.325,1.635.767,3.231t.84,2.912a7.521,7.521,0,0,1,.4,1.882v1a7.067,7.067,0,0,1-.09,1.12h.056a15.871,15.871,0,0,1,1.736-2.52,21.524,21.524,0,0,0,1.59-2.095,9.621,9.621,0,0,0,1.159-2.38,11.424,11.424,0,0,0,.426-3.444,8.82,8.82,0,0,0-.342-2.274,15.794,15.794,0,0,0-.56-1.848h-.084l.045,1.064a7.962,7.962,0,0,1,.045,1.12,5.281,5.281,0,0,1-.347,1.635l-.862,2.24Zm-2.156-4.973a6.793,6.793,0,0,0-1.826-2.341l-1.232-1.12-.728-.75a7.142,7.142,0,0,1-.454-.56,2.655,2.655,0,0,1-.319-.627H51.46l.56,2.061a9.386,9.386,0,0,0,1.12,2.487l1.9,2.7a18.643,18.643,0,0,1,1.086,1.68,6.323,6.323,0,0,1,.526,1.21,6.67,6.67,0,0,1,.207,1.12h.09A29.176,29.176,0,0,1,58.2,19.294a10.248,10.248,0,0,0,.734-3.73,10.758,10.758,0,0,0-.56-3.3,11.856,11.856,0,0,0-2.044-3.584h-.073l.487,1.2a3.276,3.276,0,0,1,.28,1.35q0,2.279-.134,3.7t-.134,2.487V18.8c0,.353.039.728.067,1.12h-.067a15.238,15.238,0,0,0-.678-2.324ZM52.927,6.3a7.465,7.465,0,0,1,.638,1.68l.56,2.24c.207.857.532,1.893.963,3.125v.073a7.672,7.672,0,0,0-1.613-2.24,15.8,15.8,0,0,0-1.786-1.417,19.748,19.748,0,0,1-1.646-1.243,4.956,4.956,0,0,1-1.243-1.8h-.073l.683,2.016a9.522,9.522,0,0,0,.5,1.243,3.327,3.327,0,0,0,.6.851l.935.851q1.568,1.344,2.716,2.274A7.841,7.841,0,0,1,56.007,16.1V11.123A6.9,6.9,0,0,0,54.8,7.147a5.343,5.343,0,0,0-3.131-2.274v.073a4.48,4.48,0,0,1,1.26,1.344ZM44.695,47.178a5.824,5.824,0,0,1-1.17-.14l-1.316-.246L40.774,46.3l-1.96-.711-3.024-1.03a6.267,6.267,0,0,0-2.033-.325,10.025,10.025,0,0,0-2.072.246l-1.557.37c-.3-.09-.784-.213-1.5-.37a9.918,9.918,0,0,0-2.055-.246,6.16,6.16,0,0,0-2.022.353l-3.024,1.064-3.472,1.2a7.84,7.84,0,0,1-2.341.347,7.393,7.393,0,0,1-1-.067,3.847,3.847,0,0,1-.851-.213l-1.036-.353-1.35-.65-.067.067A14,14,0,0,0,13.91,47.9a7.8,7.8,0,0,0,3.92,1.12,10.317,10.317,0,0,0,1.523-.106,5.846,5.846,0,0,0,1.35-.392c.448-.185.952-.426,1.49-.706l1.96-1.12,2.016-1.243a3.808,3.808,0,0,1,1.882-.459,2.851,2.851,0,0,1,.851.14q-1.4.784-3.22,1.9a16.549,16.549,0,0,0-3.511,2.923l1.2,1.064A25.655,25.655,0,0,1,26.886,47.6a11.9,11.9,0,0,1,3.271-2.027A12.393,12.393,0,0,1,33.427,47.6a24.687,24.687,0,0,1,3.539,3.416l1.21-1.064A16.174,16.174,0,0,0,34.6,47.038q-1.848-1.12-3.271-1.87a4.3,4.3,0,0,1,.93-.14,3.831,3.831,0,0,1,1.887.459q.823.465,2.033,1.243l1.848,1.092a9.6,9.6,0,0,0,1.462.711,10.917,10.917,0,0,0,1.322.392,7.079,7.079,0,0,0,1.394.14h.28a8.608,8.608,0,0,0,3.237-.711,8.512,8.512,0,0,0,3.164-2.341v-.1a21.558,21.558,0,0,1-2.352.963,5.919,5.919,0,0,1-1.848.286ZM60.409,26.569v-.224a3.139,3.139,0,0,0-.034-.33l-.134-.672a5.869,5.869,0,0,1-.879,2.481,17.708,17.708,0,0,1-1.624,2.022l-.112.123L55.61,32.124a20.767,20.767,0,0,0-2.335,3.1,14.179,14.179,0,0,0,.834-2.027,6.513,6.513,0,0,0,.426-2.022,8.5,8.5,0,0,0-.106-1.389q-.112-.6-.252-1.31a11.642,11.642,0,0,1-.28-1.6,16.7,16.7,0,0,1-.123-2.044h-.056v.006h-.073a15.06,15.06,0,0,0-.762,2.8l-.487,3.618-.241,2.313-.241,1.736a8.015,8.015,0,0,1-.381,1.389,10.317,10.317,0,0,1-.5,1.12c-.034.067-.073.129-.112.2h.028l1.764-1.176,3.551-2.319a7.583,7.583,0,0,0,1.383-1.243,10.372,10.372,0,0,0,1.35-1.876,13.274,13.274,0,0,0,.672-1.389l.358-.918a7.482,7.482,0,0,0,.426-2.447c-.028-.017-.034-.056-.034-.1ZM39.766,5.641a2.083,2.083,0,0,1,.381.213,3.287,3.287,0,0,1,.235.28.308.308,0,0,0,.246.146c.134,0,.207-.056.207-.146s0-.129-.034-.112-.039,0-.039-.112a.55.55,0,0,0-.756-.566.207.207,0,0,0-.134-.067h-.106c-.134,0-.207.045-.207.14s.078.168.207.213ZM32.223,3.916h.146a3.259,3.259,0,0,1,.857-.179h1a.51.51,0,0,0,.431-.179,1.988,1.988,0,0,0,.213-.325,1.35,1.35,0,0,0-.857-.5,5.4,5.4,0,0,0-.711-.073,4.363,4.363,0,0,0-.857.263l-.857.336c-.241-.056-.381,0-.426.151a3.276,3.276,0,0,0,.386.33,1.12,1.12,0,0,0,.678.185ZM30.078,42.854A21.432,21.432,0,1,0,8.651,21.424a21.432,21.432,0,0,0,21.427,21.43ZM9.749,21.965h3.259a16.969,16.969,0,0,0,.672,4.223.4.4,0,0,1-.246-.174l-.1-.1-.358-.5-.594.224c0,.336-.112.448-.353.358a.414.414,0,0,0-.286-.146.644.644,0,0,0-.683.6,6.574,6.574,0,0,0-.106.823l.5,1.288c.1.146.241.168.431.073a5.074,5.074,0,0,0,.448.487.5.5,0,0,0,.364.146.2.2,0,0,0,.224-.218H13a4.268,4.268,0,0,1,.3.325,1.725,1.725,0,0,0,.37.319v-.067a.868.868,0,0,0,.6.258,1.714,1.714,0,0,0,.42.79.8.8,0,0,0,.56.291.414.414,0,0,0,.286-.146,2.38,2.38,0,0,0,.353.722,3.243,3.243,0,0,1,.358.213,1.854,1.854,0,0,1,.286.218h.146a1.277,1.277,0,0,0,.353.56,2.7,2.7,0,0,0,.431.358h.05l.146.168-2.3,2.3A20.267,20.267,0,0,1,9.766,21.971ZM25.43,15.956a1.815,1.815,0,0,0-.185-.112l-.224-.224a7.678,7.678,0,0,1,4.48-1.865v2.268a.33.33,0,0,0-.1-.056.358.358,0,0,1-.056-.073.263.263,0,0,0-.174-.039.392.392,0,0,0-.078,0,.661.661,0,0,0-.157,0,.56.56,0,0,1-.168.034.162.162,0,0,1-.09,0,.393.393,0,0,1-.1-.325c-.2.1-.3.19-.325.28l-.112.5a.526.526,0,0,1-.364.386,1.232,1.232,0,0,0-.431.252l-.224-.14h-.358a.918.918,0,0,0-.218-.179.56.56,0,0,1-.14-.106q-.067-.073-.067,0a.174.174,0,0,0-.19.157l-.213-.207H26v-.168a3.181,3.181,0,0,0-.56-.392Zm-1.176-1.12-2.184-2.184a11.811,11.811,0,0,1,7.448-3.091v3.1a8.714,8.714,0,0,0-5.236,2.207ZM25.508,25.2c.112-.112.056-.319.112-.459l-.246.224a2.083,2.083,0,0,0,.426-.56,1.971,1.971,0,0,1,.213-.392l.258.448-2,2a7.605,7.605,0,0,1-1.68-3.22,1.826,1.826,0,0,1,.5.14,4.335,4.335,0,0,1,.448.409.622.622,0,0,0,.291-.073l.28.224a.56.56,0,0,0,.073.353c0,.056.073.112.224.179a.689.689,0,0,1,.291.246l.14-.067a2.24,2.24,0,0,0-.034-.286c0-.14,0-.213.034-.213l.14.5.146.56a.426.426,0,0,0,.392-.006Zm4.256,2.24a.506.506,0,0,1,.168.246c0,.146-.19.213-.56.213-.146,0-.241.14-.291.409l-.14.672h-.112V29a7.689,7.689,0,0,1-3.8-1.77L26.964,25.3a4.57,4.57,0,0,0,2.722,1.232.526.526,0,0,0,.067.3.476.476,0,0,0-.14.353c-.022.056.034.134.157.246Zm-9.52.134a10.175,10.175,0,0,0-.146-1.215,5.853,5.853,0,0,0-.218-.644,3.36,3.36,0,0,0-.224-.963,4.088,4.088,0,0,0-.678-.89v-.414a1.809,1.809,0,0,0-.14-.414v-.073a.168.168,0,0,1,.112-.185l.75-.258a1.77,1.77,0,0,1,.073-.655l.521.09c.146,0,.224-.1.224-.3a2.408,2.408,0,0,0-.14-.442,1.551,1.551,0,0,1-.146-.515c0-.1.073-.185.213-.258a.946.946,0,0,1,.426-.112.56.56,0,0,1,.5.246,1.12,1.12,0,0,1,.14.56,2.066,2.066,0,0,1-.034.386,1.366,1.366,0,0,0-.039.314l.146.073q-.146.706-.56.706a.347.347,0,0,1-.3-.213.3.3,0,0,0-.246-.179c-.045,0-.067,0-.067.073a.711.711,0,0,0,.067.291.756.756,0,0,1,.073.358c0,.336-.151.448-.448.358-.1.179,0,.269.291.269.1.291.2.409.3.364a1.249,1.249,0,0,0,.146-.487,2.677,2.677,0,0,1,.146-.56l.078.073.3-.073a.594.594,0,0,0,0,.106h.084a8.675,8.675,0,0,0,2.078,4.234L20.49,30.237a.51.51,0,0,1-.162-.47c.056-.291.353-.47.392-.773l.073-.56a2.94,2.94,0,0,1-.521-.857Zm-1.736-4.48a.56.56,0,0,1,.073.28c0,.146-.045.207-.146.179h-.056a11.761,11.761,0,0,1-.19-1.613H18.8a.778.778,0,0,1-.062.291,2.666,2.666,0,0,1-.179.286.47.47,0,0,0-.112.28.7.7,0,0,0,.073.319Zm-.314-2.24a11.845,11.845,0,0,1,3.125-7.415l2.207,2.184-.056.073a1.927,1.927,0,0,0-.381.134l-.314.42a3.259,3.259,0,0,0-.678.358,4.021,4.021,0,0,0-.56.56l-.56.252a.655.655,0,0,0-.252.174c.1.241.1.37,0,.392l-.717.179a.23.23,0,0,0-.14.073l-.213.213a.56.56,0,0,0-.073.252.526.526,0,0,1-.073.246,1.339,1.339,0,0,0-.353.358.851.851,0,0,0,0,.644l.09.711h-.034a1.064,1.064,0,0,1,.062.218ZM24.276,28a8.792,8.792,0,0,0,3.8,1.96l-.314.112a.56.56,0,0,0-.431.465.717.717,0,0,1-.319.56c-.168.09-.224.179-.179.325a1.988,1.988,0,0,1,.5.862.89.89,0,0,0,.717.644l.426.146a.851.851,0,0,1,.426.157,2.108,2.108,0,0,1,.37.056,11.8,11.8,0,0,1-7.185-3.1ZM21.319,11.9,19.157,9.74A15.95,15.95,0,0,1,29.535,5.428V8.491A12.914,12.914,0,0,0,21.319,11.9Zm-.762.767a12.881,12.881,0,0,0-3.411,8.216H14.083A15.95,15.95,0,0,1,18.39,10.5Zm-3.416,9.3a13.227,13.227,0,0,0,.168,1.579,2.418,2.418,0,0,1-.118-.213c-.168-.224-.314-.347-.42-.347a.286.286,0,0,0-.291.179.93.93,0,0,1-.218.319,1.96,1.96,0,0,1-.79.358,1.764,1.764,0,0,0-.431.857.246.246,0,0,0,.034.286c.073.1.034.19-.112.28.1.19.112.308.073.358.045.1.034.129-.039.112a.168.168,0,0,0-.179.034.442.442,0,0,0-.1.162,15.737,15.737,0,0,1-.644-3.965ZM29.529,41.757a20.273,20.273,0,0,1-13.441-5.6l2.3-2.307a17.014,17.014,0,0,0,11.145,4.626Zm0-4.34A15.944,15.944,0,0,1,19.2,33.149a1.422,1.422,0,0,0,.56.157,1.546,1.546,0,0,0,.56-.151,6.362,6.362,0,0,0,.644-.3,1.182,1.182,0,0,0,.644-.14,1.07,1.07,0,0,0,.56,0,.336.336,0,0,0,.252-.358.493.493,0,0,0-.252-.392c-.168-.112-.258-.224-.258-.319s-.045-.112-.146-.179a4.055,4.055,0,0,1-.459-.515,12.909,12.909,0,0,0,8.216,3.4Zm.56-7.952a1.535,1.535,0,0,1-.706-.112c0-.056-.056-.123-.073-.19a2.957,2.957,0,0,1,.336-.218.969.969,0,0,1,.442-.185v-.2l.526-.392A.616.616,0,0,1,30.8,28.1a2.677,2.677,0,0,0,.4-.146,2.531,2.531,0,0,1,.56.252,2.274,2.274,0,0,0,.56.246l.073-.28c.1,0,.235.1.426.28a.7.7,0,0,0,.358-.14.493.493,0,0,0,0-.358.622.622,0,0,1,.213.073.134.134,0,0,1,.106.039.151.151,0,0,0,.106.034h.073a.79.79,0,0,0,.392-.179,3.512,3.512,0,0,1,.392-.252.09.09,0,0,1,.14,0,.409.409,0,0,1,.073.286.913.913,0,0,1-.6.857,9.56,9.56,0,0,1-1.036.426,1.35,1.35,0,0,0-.179.325c-.067.168-.151.246-.246.246a4.167,4.167,0,0,1-.879-.123,1.467,1.467,0,0,1-.218-.431,2.363,2.363,0,0,0-.515.073l-.588.146a.7.7,0,0,1-.3,0Zm3.091-2.352a.56.56,0,0,1,.358-.465,1.585,1.585,0,0,1,.56-.106c0,.14-.134.28-.392.426a1.809,1.809,0,0,1-.465.213Zm2.212-1.747a.56.56,0,0,1,.286.56.252.252,0,0,1-.286.286c-.146,0-.263-.168-.358-.5-.336-.1-.521-.252-.56-.465s0-.336.073-.392a1.972,1.972,0,0,1,.286-.106c.1,0,.112.084.073.319Zm6.888-11.973a.2.2,0,0,1,.146.073.868.868,0,0,1,.5.14,5.432,5.432,0,0,1,.862,1.07c.056,0,.112.073.179.224s.157.213.252.213a1.036,1.036,0,0,0,.37-.118.316.316,0,0,1,.045-.2,15.966,15.966,0,0,1,1.434,6.093H43.042a.168.168,0,0,1,0-.056,1.523,1.523,0,0,0-.168-.8,1.551,1.551,0,0,1-.1-1.053,1.12,1.12,0,0,0,.039-.6.42.42,0,0,0-.252.1,1.181,1.181,0,0,0-.185.319l-.168.392v.039a.56.56,0,0,0-.056.134.56.56,0,0,1-.073.179l-.146.56a1.467,1.467,0,0,0,0,.56h0v.224H40.382a.874.874,0,0,1,.33-.218h-.056l.414-.207a.23.23,0,0,1-.14-.213c0-.14,0-.224.073-.246s.179-.084.414-.168a2.991,2.991,0,0,0,.381-.666,4.318,4.318,0,0,0,.56-1.417c0-.112-.146-.252-.168-.37a2.067,2.067,0,0,1,.034-.308c0-.5.224-1.366-.414-1.523-.056,0-.073-.073-.073-.213a.493.493,0,0,0,.146-.56h-.437a.638.638,0,0,1,.106-.252.627.627,0,0,0,.112-.319A.19.19,0,0,0,41.446,14a.778.778,0,0,0-.364.073.56.56,0,0,1-.224.073.336.336,0,0,1-.112,0l-.1-.146a1.12,1.12,0,0,0-.325-.717,1.394,1.394,0,0,0-.56-.4.465.465,0,0,0,0-.3l.56-.65.868.314a.56.56,0,0,0,.224.5,2.582,2.582,0,0,0,.3.213,3.181,3.181,0,0,1,.342.258v.039c.112.1.179.146.224.146ZM39.346,34.157a.246.246,0,0,0-.179-.073c-.073,0-.112-.045-.112-.14s.073-.19.224-.28a1.075,1.075,0,0,0,.358-.5,1.12,1.12,0,0,0,.129-.459.162.162,0,0,0-.112-.174.756.756,0,0,1-.252-.179,2.868,2.868,0,0,0-.319-.14A2.369,2.369,0,0,1,38.691,32a.414.414,0,0,1-.218-.358,1.826,1.826,0,0,1,.106-.353c0-.056.056-.129.078-.19l.168-.14L40.472,32.6c0,.19.112.3.336.336l.179.179a15.681,15.681,0,0,1-1.842,1.478.627.627,0,0,1,.123-.185.314.314,0,0,1,.084-.056.336.336,0,0,0,0-.19Zm-.991-7.84a.5.5,0,0,0-.437.073.633.633,0,0,0-.431.42c0,.045-.028.067-.073.067a.672.672,0,0,0-.286.073,2.61,2.61,0,0,0-.358.146c-.14,0-.213-.056-.213-.146s.213-.235.644-.28q.28-.347.353-.42a.812.812,0,0,1,.33-.14,1.54,1.54,0,0,0,.56-.521,1.73,1.73,0,0,0,.269-.454h.067c0,.224.1.347.3.347s.28-.168.375-.493a2.57,2.57,0,0,0,.6.146.56.56,0,0,0,.521-.274h.874a.314.314,0,0,0,0,.067v.056a11.923,11.923,0,0,1-2.391,4.267v-.224a3.915,3.915,0,0,0-.258-.65c-.045,0-.207.168-.336.5l-.269.638-.717.146a2.744,2.744,0,0,1-.638.073,1.8,1.8,0,0,1-.6-.252,1.927,1.927,0,0,0-.61-.246,4.385,4.385,0,0,0-.6-.146c-.263-.045-.392-.112-.392-.213s.1-.213.28-.213a2.868,2.868,0,0,1,.56.106l.857.213.784.213a2.319,2.319,0,0,0,.426.106l.431-.14a.868.868,0,0,1,.14-.392.829.829,0,0,0,.146-.392,3.181,3.181,0,0,0,.263-.784,3.791,3.791,0,0,0,.118-.857c-.056-.263-.134-.42-.28-.42Zm1.893-4.323h1.68a12.119,12.119,0,0,1-.28,2.083,2.358,2.358,0,0,0-.364-.638l-.56-.56-.112-.5a.6.6,0,0,0-.1-.168,1.159,1.159,0,0,1-.269-.246Zm.694,8.692c-.146,0-.213.039-.213.112a3.88,3.88,0,0,1-.067.442L39.6,30.175a12.881,12.881,0,0,0,3.013-5.544l.056-.045q.358.134.47,0a.426.426,0,0,0,.106-.213.969.969,0,0,0-.353-.56H42.8a13.406,13.406,0,0,0,.213-1.854h3.063a15.95,15.95,0,0,1-4.307,10.377l-.134-.129V32.18l-.157-.963c-.056-.314-.246-.532-.532-.532Zm-.756-15.457a1.12,1.12,0,0,1-.073.358,3.729,3.729,0,0,1-.14.358,2.173,2.173,0,0,0,.56.5,5.646,5.646,0,0,1,.644.5,3.45,3.45,0,0,1,.319.823,3.8,3.8,0,0,1,.179.756,1.708,1.708,0,0,1-.213.5.846.846,0,0,1-.711.431l-.073-.073a1.025,1.025,0,0,1,.14-.42,1.12,1.12,0,0,0,.146-.426.56.56,0,0,0,.286-.42l-.224-.112a2.475,2.475,0,0,1-.353-.319c0-.14-.146-.207-.426-.207a.56.56,0,0,0-.358.106,4.256,4.256,0,0,1-.358.246l-.14-.28a.7.7,0,0,0,.073-.3L38.9,16.3a2.24,2.24,0,0,0-.784-.246,1.294,1.294,0,0,0-.56,0,1.327,1.327,0,0,1-.56-.028.739.739,0,0,0-.594.207,2.464,2.464,0,0,0-.47.465c-.073.084,0,.2-.185.157a1.014,1.014,0,0,1-.179-.19l3.259-3.231a.744.744,0,0,0,.078.106l.28.319.3.381q.369.475.689.986ZM32.413,36.621a2.576,2.576,0,0,0,.913.47,15.943,15.943,0,0,1-2.7.325V34.353a1.814,1.814,0,0,0,.454.482,1.988,1.988,0,0,0,.627.106c.319.028.482.084.482.179a.672.672,0,0,1-.106.319.661.661,0,0,0-.112.325,1.081,1.081,0,0,0,.448.857Zm-1.792,5.135V38.5a17.064,17.064,0,0,0,3.545-.487.342.342,0,0,1,0,.067.252.252,0,0,1,0,.09,2.5,2.5,0,0,1,.711.678c.1.19.358.28.784.28.241,0,.392-.045.465-.14a2.3,2.3,0,0,1,.252-.286.9.9,0,0,1,.353-.218.437.437,0,0,0,.286-.213.918.918,0,0,0,.5-.426,1.3,1.3,0,0,0,.426-.56.381.381,0,0,0,.286-.174,2.24,2.24,0,0,0,.286-.75l.123-.073a.7.7,0,0,1,0-.106,17.406,17.406,0,0,0,3.075-2.3l2.3,2.307a20.273,20.273,0,0,1-13.4,5.567Zm14.213-6.345-2.307-2.3a17,17,0,0,0,4.626-11.145h3.254a20.29,20.29,0,0,1-5.572,13.446Zm5.572-14.527H47.159a16.963,16.963,0,0,0-3.293-9.52.868.868,0,0,0-.162-.3,1.036,1.036,0,0,0-.185-.162l-.84-.986a.975.975,0,0,1-.09-.23l2.24-2.24a20.3,20.3,0,0,1,5.578,13.435ZM30.621,1.116a20.245,20.245,0,0,1,13.441,5.6L42.079,8.7a1.512,1.512,0,0,1-.112-.3c-.157-.14-.258-.224-.3-.224a.56.56,0,0,1-.325-.454.756.756,0,0,0-.179-.459,1.3,1.3,0,0,1-.717-.627c-.19-.325-.381-.493-.56-.493a.6.6,0,0,1-.465-.05,1.507,1.507,0,0,0-.465-.129,1.68,1.68,0,0,0-.5.073,4.744,4.744,0,0,1-.56.14l-.073.073a16.941,16.941,0,0,0-6.961-1.882c.185-.3.213-.493.067-.56-.039-.039-.146,0-.308.168Zm0,4.335a16.034,16.034,0,0,1,6.636,1.68.162.162,0,0,0,0,.05l.28.314.246.28a4.749,4.749,0,0,0,.2.622,2.939,2.939,0,0,0,.218.353.767.767,0,0,0,.106.6,4.794,4.794,0,0,0,.392.6l.28-.034a1.82,1.82,0,0,1,.353-.039.47.47,0,0,1,.325.213,1.31,1.31,0,0,1,.246.431.851.851,0,0,1,.062.235l-.874.874a4.788,4.788,0,0,0-.426-1.182.678.678,0,0,0-.56-.185c-.056-.045-.213-.252-.5-.616s-.448-.56-.5-.56a.28.28,0,0,0-.213.073,2.514,2.514,0,0,0,.146.252l.28.47a.129.129,0,0,1-.146.146.47.47,0,0,0,.358.358l-.073.14.207.42a12.881,12.881,0,0,0-7.068-2.475Zm0,4.144a11.8,11.8,0,0,1,7.465,3.075L35.9,14.853a8.714,8.714,0,0,0-5.259-2.184Zm0,4.183a7.628,7.628,0,0,1,4.245,1.68.454.454,0,0,0-.146.084.56.56,0,0,1-.146.1q-.067.034-.067.168c0,.112.157.168.269.179l-.834.806a1.394,1.394,0,0,0-.319.224.708.708,0,0,0-.336.252,1.371,1.371,0,0,0-.067.246l-.28.28a.437.437,0,0,1-.123,0c-.1,0-.241-.1-.437-.291s-.336-.28-.437-.28a.431.431,0,0,0-.325.106.2.2,0,0,1-.252.028c-.1-.1,0-.2.325-.325l.616-.252a1.372,1.372,0,0,0,.56-1.148c0-.241-.1-.364-.291-.364l-.224.207a1.809,1.809,0,0,0-.51.342l-.364.347a.974.974,0,0,0-.437-.073h-.426Zm-.633,4.906c.034.073.078.112.129.112a.56.56,0,0,1,.347.112.426.426,0,0,0,.364.045.274.274,0,0,0,.084.134.263.263,0,0,0,.274.151l.084.09a.392.392,0,0,1,.045.078,2.368,2.368,0,0,0,.118.252h.028v.056a.3.3,0,0,0,.23.034.269.269,0,0,1,.179,0V19.9h.045a1.014,1.014,0,0,0,0,.174,1.719,1.719,0,0,1,.034.319v.14a.067.067,0,0,1-.073.073.594.594,0,0,0-.23.42c0,.1.056.129.19.112a.224.224,0,0,1,.269.106.56.56,0,0,1,.151.42v.638a.235.235,0,0,0,.106.213c.073.045.112.09.112.14a2.336,2.336,0,0,1-.073.526.9.9,0,0,1-.213.459q-.078.067-.37,0a2.364,2.364,0,0,0-.515-.073c-.1,0-.2.146-.291.426a4.7,4.7,0,0,0-.224.644c-.045.19-.146.28-.291.28a1.255,1.255,0,0,0-.291.034h.039l-.241.392-.078.1a3.433,3.433,0,0,1-2.162-.941l.375-.375a3.887,3.887,0,0,0,.689-.162l.123-.056c.381-.168.347-.476.56-.806.123-.224.482-.465.2-.711.319-.56-1.165-.56-1.428-.448s-.112.476-.28.728c-.084.129-.224.129-.336.224a1.882,1.882,0,0,0-.56.739,3.64,3.64,0,0,1-.241-.56h.056c-.028-.056-.039-.1,0-.112h.073v.073c.185.045.308.045.353,0a2.655,2.655,0,0,0,.106-.4,4.7,4.7,0,0,1,.392-.834.33.33,0,0,1-.168-.218c0-.1-.078-.112-.168-.073a.241.241,0,0,0-.134.218.42.42,0,0,1-.134.286.386.386,0,0,1-.28.14.19.19,0,0,0-.213-.213.414.414,0,0,0-.286.146,3.382,3.382,0,0,0-.672.067,1.411,1.411,0,0,1-.678,0c-.1-.09,0-.19.358-.28a.986.986,0,0,1,.3-.806,1.12,1.12,0,0,0,.431.146l.14-.146h.073c.14,0,.224.123.246.364s.084.358.179.358a.4.4,0,0,0,.286-.146v-.375l.213-.8v-.213a1.193,1.193,0,0,1,.224-.353h.084a.689.689,0,0,1,.33-.151,1.12,1.12,0,0,0,.14-.442c.146-.045.392-.146.75-.291s.56-.291.56-.437v-.039a3.438,3.438,0,0,1,.482-.067.314.314,0,0,0,.084.179ZM29.535,1.116V4.347A17.07,17.07,0,0,0,18.39,8.956l-2.3-2.3A20.245,20.245,0,0,1,29.535,1.116ZM15.327,7.433l2.3,2.3A17.047,17.047,0,0,0,13,20.879H9.749A20.284,20.284,0,0,1,15.332,7.427Z" transform="translate(-0.01 0.01)" fill="#fff"/>
      <path id="Trazado_54" data-name="Trazado 54" d="M143.7,25.826h-4.144l-8.4-14.2h-.084v14.2H126.91V5.043h4.167l8.4,14.185h.09V5.043h4.144Zm12.237,0a8.4,8.4,0,0,1-.392-1.12,7.2,7.2,0,0,1-.235-1.2,5.824,5.824,0,0,1-1.68,1.87,4.239,4.239,0,0,1-2.5.739,5.224,5.224,0,0,1-3.741-1.249,4.48,4.48,0,0,1-1.322-3.394,4.071,4.071,0,0,1,1.747-3.517,8.752,8.752,0,0,1,5.1-1.249h2.324V15.477a2.419,2.419,0,0,0-.56-1.725,2.733,2.733,0,0,0-3.293-.123,1.753,1.753,0,0,0-.56,1.366H146.8v-.084a3.92,3.92,0,0,1,1.68-3.36,7.4,7.4,0,0,1,4.693-1.45,6.894,6.894,0,0,1,4.48,1.4,4.872,4.872,0,0,1,1.73,4v6.384a12.442,12.442,0,0,0,.162,2.044,10.758,10.758,0,0,0,.521,1.9Zm-3.808-2.8a3.612,3.612,0,0,0,1.955-.56,2.834,2.834,0,0,0,1.154-1.254V19.027h-2.324a2.8,2.8,0,0,0-2.016.661,2.167,2.167,0,0,0-.683,1.607,1.607,1.607,0,0,0,.515,1.243,1.988,1.988,0,0,0,1.4.5Zm16.543-.112a2.487,2.487,0,0,0,1.786-.644,2.3,2.3,0,0,0,.666-1.725h3.786l.039.084a4.816,4.816,0,0,1-1.758,3.92,7.437,7.437,0,0,1-9.84-.61,8.322,8.322,0,0,1-1.865-5.6v-.431a8.4,8.4,0,0,1,1.859-5.6,6.572,6.572,0,0,1,5.32-2.2,6.474,6.474,0,0,1,4.6,1.624,5.4,5.4,0,0,1,1.68,4.279v.09h-3.8a3.03,3.03,0,0,0-.655-1.994,2.24,2.24,0,0,0-1.815-.79,2.408,2.408,0,0,0-2.33,1.282,7.028,7.028,0,0,0-.678,3.3v.431a7.017,7.017,0,0,0,.678,3.327,2.43,2.43,0,0,0,2.33,1.249Zm15.054-4.951a8.271,8.271,0,0,1,1.932-5.662A6.721,6.721,0,0,1,191,10.1a6.8,6.8,0,0,1,5.365,2.2,8.249,8.249,0,0,1,1.943,5.667v.3a8.26,8.26,0,0,1-1.938,5.673,7.654,7.654,0,0,1-10.708,0,8.26,8.26,0,0,1-1.932-5.673Zm4.144.291a6.659,6.659,0,0,0,.745,3.36,2.851,2.851,0,0,0,4.76,0,6.675,6.675,0,0,0,.745-3.36v-.3a6.6,6.6,0,0,0-.756-3.36,2.559,2.559,0,0,0-2.38-1.294,2.52,2.52,0,0,0-2.363,1.3,6.648,6.648,0,0,0-.75,3.36Zm16.42-7.868.185,2.24a5.651,5.651,0,0,1,1.9-1.865,4.922,4.922,0,0,1,2.526-.655,4.643,4.643,0,0,1,3.635,1.467,6.8,6.8,0,0,1,1.316,4.609v9.649H209.67v-9.66a3.136,3.136,0,0,0-.627-2.24,2.537,2.537,0,0,0-1.9-.65,3.2,3.2,0,0,0-1.484.336,3.041,3.041,0,0,0-1.12.952V25.826h-4.167V10.386Zm19.142,15.737a6.944,6.944,0,0,1-5.337-2.139,7.661,7.661,0,0,1-2-5.438v-.56a8.462,8.462,0,0,1,1.893-5.667,7.057,7.057,0,0,1,9.924-.325,7.251,7.251,0,0,1,1.725,5.1v2.257h-9.218l-.028.084a4.021,4.021,0,0,0,1.019,2.5,3.209,3.209,0,0,0,2.464.98,8.025,8.025,0,0,0,2.3-.28,10.253,10.253,0,0,0,2-.879l1.12,2.576a7.622,7.622,0,0,1-2.47,1.282,10.64,10.64,0,0,1-3.388.51Zm-.37-12.813a2.179,2.179,0,0,0-1.831.885,4.609,4.609,0,0,0-.823,2.324l.039.073h5.107v-.37a3.36,3.36,0,0,0-.616-2.123A2.24,2.24,0,0,0,223.066,13.309Zm16.969,8.26a1.451,1.451,0,0,0-.661-1.182,6.72,6.72,0,0,0-2.464-.885,9.856,9.856,0,0,1-4.127-1.652,3.573,3.573,0,0,1-1.394-2.974,4.25,4.25,0,0,1,1.68-3.36,6.776,6.776,0,0,1,4.48-1.389,7.372,7.372,0,0,1,4.7,1.383,4.077,4.077,0,0,1,1.68,3.495l-.028.084h-4.032a2.044,2.044,0,0,0-.588-1.512,2.391,2.391,0,0,0-1.736-.56,2.363,2.363,0,0,0-1.59.493,1.546,1.546,0,0,0-.56,1.232,1.405,1.405,0,0,0,.588,1.131,6.625,6.625,0,0,0,2.464.812,9.93,9.93,0,0,1,4.234,1.68,3.679,3.679,0,0,1,1.389,3.047,4.055,4.055,0,0,1-1.787,3.4,7.7,7.7,0,0,1-4.71,1.322,7.142,7.142,0,0,1-4.872-1.568A4.379,4.379,0,0,1,231.024,21v-.09h3.808a2.156,2.156,0,0,0,.812,1.8,3.36,3.36,0,0,0,2.011.56,2.907,2.907,0,0,0,1.764-.459,1.467,1.467,0,0,0,.6-1.254Zm-96.683,8.305V43.663a6.588,6.588,0,0,1-2.313,5.4,10.556,10.556,0,0,1-12.063,0,6.6,6.6,0,0,1-2.3-5.4V29.875h4.183V43.652a3.96,3.96,0,0,0,1.12,3.08,4.284,4.284,0,0,0,3.024,1.019,4.374,4.374,0,0,0,3.052-1.019,3.939,3.939,0,0,0,1.12-3.08V29.875Zm6.72,5.343.185,2.24a5.673,5.673,0,0,1,1.9-1.842,4.923,4.923,0,0,1,2.526-.7,4.643,4.643,0,0,1,3.651,1.467,6.8,6.8,0,0,1,1.316,4.609v9.66h-4.183V41a3.136,3.136,0,0,0-.627-2.24,2.537,2.537,0,0,0-1.9-.65,3.2,3.2,0,0,0-1.484.336,3.041,3.041,0,0,0-1.12.952V50.6h-4.167V35.218Zm19.1,7.84a10.1,10.1,0,0,1,1.568-5.891,5.119,5.119,0,0,1,4.447-2.24,4.34,4.34,0,0,1,2.083.5,4.951,4.951,0,0,1,1.624,1.428V28.4h4.183V50.652H179.5l-.336-1.882a5.085,5.085,0,0,1-1.719,1.624,4.575,4.575,0,0,1-2.274.56,5.214,5.214,0,0,1-4.419-2.083,8.831,8.831,0,0,1-1.568-5.505Zm4.144.3A6.384,6.384,0,0,0,174,46.569a2.386,2.386,0,0,0,2.24,1.17,3.259,3.259,0,0,0,1.568-.364,2.873,2.873,0,0,0,1.12-1.07V39.692a3.181,3.181,0,0,0-1.086-1.12,2.94,2.94,0,0,0-1.551-.409,2.347,2.347,0,0,0-2.24,1.366,7.739,7.739,0,0,0-.711,3.534Zm21.673,7.28a9.313,9.313,0,0,1-.392-1.12,8.4,8.4,0,0,1-.235-1.2,5.7,5.7,0,0,1-1.68,1.87,4.239,4.239,0,0,1-2.537.745,5.236,5.236,0,0,1-3.741-1.243,4.48,4.48,0,0,1-1.3-3.4,4.066,4.066,0,0,1,1.747-3.517,8.66,8.66,0,0,1,5.1-1.249h2.324V40.291a2.4,2.4,0,0,0-.56-1.73,2.274,2.274,0,0,0-1.725-.61,2.24,2.24,0,0,0-1.562.493,1.714,1.714,0,0,0-.56,1.361h-4.021V39.72a3.92,3.92,0,0,1,1.68-3.36,7.4,7.4,0,0,1,4.721-1.467,6.877,6.877,0,0,1,4.48,1.406,4.867,4.867,0,0,1,1.725,4v6.4a12.381,12.381,0,0,0,.162,2.038,10.643,10.643,0,0,0,.521,1.9Zm-3.808-2.8a3.551,3.551,0,0,0,1.954-.56,2.8,2.8,0,0,0,1.154-1.254V43.876h-2.324a2.8,2.8,0,0,0-2.01.666,2.139,2.139,0,0,0-.689,1.6,1.607,1.607,0,0,0,.515,1.243,2,2,0,0,0,1.4.487ZM209.592,46.4a1.456,1.456,0,0,0-.661-1.187,6.844,6.844,0,0,0-2.464-.885,9.918,9.918,0,0,1-4.133-1.646,3.59,3.59,0,0,1-1.389-2.979,4.267,4.267,0,0,1,1.68-3.388,6.838,6.838,0,0,1,4.48-1.389,7.353,7.353,0,0,1,4.7,1.383,4.1,4.1,0,0,1,1.68,3.495l-.028.09h-4.032a2.01,2.01,0,0,0-.594-1.512,2.8,2.8,0,0,0-3.321-.1,1.557,1.557,0,0,0-.56,1.232,1.394,1.394,0,0,0,.61,1.17,6.569,6.569,0,0,0,2.459.818,9.957,9.957,0,0,1,4.239,1.68,3.685,3.685,0,0,1,1.383,3.047,4.06,4.06,0,0,1-1.781,3.4,7.745,7.745,0,0,1-4.71,1.316,7.15,7.15,0,0,1-4.872-1.557,4.368,4.368,0,0,1-1.68-3.562v-.09h3.808a2.156,2.156,0,0,0,.812,1.8,3.326,3.326,0,0,0,2.01.56,2.867,2.867,0,0,0,1.764-.459,1.467,1.467,0,0,0,.588-1.243ZM176.926,6.382a2.027,2.027,0,0,1,.622-1.529,2.671,2.671,0,0,1,3.36,0,2.016,2.016,0,0,1,.633,1.529,2.016,2.016,0,0,1-.638,1.54,2.649,2.649,0,0,1-3.36,0,2.011,2.011,0,0,1-.616-1.54Zm4.379,19.444h-4.144V10.386h4.144Zm-18.94,5.393a2.039,2.039,0,0,1,.616-1.529,2.677,2.677,0,0,1,3.36,0,2.184,2.184,0,0,1,0,3.069,2.627,2.627,0,0,1-3.36,0,2.011,2.011,0,0,1-.616-1.54Zm4.379,19.444H162.6V35.206h4.144Z" transform="translate(-55.741 -1.868)" fill="#fff"/>
    </g>
  </g>
</svg>
