<svg xmlns="http://www.w3.org/2000/svg" width="41.998" height="40.003" viewBox="0 0 41.998 40.003">
  <g id="Grupo_29" data-name="Grupo 29" transform="translate(-1718.002 -213.999)">
    <path id="Sustracción_2" data-name="Sustracción 2" d="M19676.775-495.068h-34a4,4,0,0,1-4-4v-32a4,4,0,0,1,4-4h34a4.005,4.005,0,0,1,4,4v32A4.005,4.005,0,0,1,19676.775-495.068Zm-20.963-24.074a10.142,10.142,0,0,0-6.559,2.47,10.04,10.04,0,0,0-3.463,6.658c-.031.683-.014,1.365.01,2a10.15,10.15,0,0,0,4.9,7.671,9.85,9.85,0,0,0,4.994,1.4c.166,0,.328,0,.484-.015a9.976,9.976,0,0,0,7.938-4.312,10.338,10.338,0,0,0,1.813-5.29c.025-2.365.021-4.765.02-7.086v-.764c0-1.28,0-2.6.006-3.9a17.29,17.29,0,0,0,2.178,1.25,14.241,14.241,0,0,0,5.641,1.3v-5.408a9.462,9.462,0,0,1-5.7-2.405,8.3,8.3,0,0,1-2.352-5.6c-.7.006-1.41.007-2.1.008h-.012c-1.027,0-2.092,0-3.143.021-.023,3.388-.023,6.833-.023,10.165,0,1.979,0,4.026-.006,6.041,0,.61,0,1.244,0,1.8v.086c0,1.74.008,3.539-.1,5.313a2.824,2.824,0,0,1-.5,1.344l0,.006-.041.072a4.522,4.522,0,0,1-3.719,2.158q-.167.015-.34.015a4.605,4.605,0,0,1-4.363-3.868c0-.12,0-.241-.008-.361l0-.011a4.249,4.249,0,0,1,.2-1.791,4.6,4.6,0,0,1,1.822-2.346,4.392,4.392,0,0,1,2.508-.742,5.025,5.025,0,0,1,1.547.243c0-.89.016-1.8.029-2.572.02-1.049.041-2.238.025-3.389A9.139,9.139,0,0,0,19655.813-519.142Z" transform="translate(-17920.775 749.07)" fill="#fff"/>
  </g>
</svg>
