<svg xmlns="http://www.w3.org/2000/svg" width="42.308" height="39.935" viewBox="0 0 42.308 39.935">
  <path id="Icon_awesome-facebook-square" data-name="Icon awesome-facebook-square" d="M37.775,2.25H4.533A4.411,4.411,0,0,0,0,6.529V37.906a4.411,4.411,0,0,0,4.533,4.279H17.495V28.608h-5.95v-6.39h5.95V17.347c0-5.54,3.494-8.6,8.846-8.6a38.123,38.123,0,0,1,5.243.431v5.438H28.631c-2.91,0-3.817,1.7-3.817,3.452v4.149h6.5l-1.039,6.39H24.814V42.185H37.775a4.411,4.411,0,0,0,4.533-4.279V6.529A4.411,4.411,0,0,0,37.775,2.25Z" transform="translate(0 -2.25)" fill="#fff"/>
</svg>
