<svg xmlns="http://www.w3.org/2000/svg" width="26.121" height="18.084" viewBox="0 0 26.121 18.084">
  <g id="Icon_ionic-ios-mail" data-name="Icon ionic-ios-mail" transform="translate(0 0)">
    <path id="Trazado_43" data-name="Trazado 43" d="M29.282,10.352l-6.756,6.882a.121.121,0,0,0,0,.176l4.728,5.036a.815.815,0,0,1,0,1.155.819.819,0,0,1-1.155,0L21.39,18.584a.129.129,0,0,0-.182,0l-1.149,1.168a5.056,5.056,0,0,1-3.6,1.52,5.157,5.157,0,0,1-3.68-1.563L11.67,18.584a.129.129,0,0,0-.182,0L6.778,23.6a.819.819,0,0,1-1.155,0,.815.815,0,0,1,0-1.155l4.728-5.036a.134.134,0,0,0,0-.176L3.588,10.352a.124.124,0,0,0-.213.088V24.21A2.015,2.015,0,0,0,5.384,26.22h22.1A2.015,2.015,0,0,0,29.5,24.21V10.44A.126.126,0,0,0,29.282,10.352Z" transform="translate(-3.375 -8.136)" fill="#fff"/>
    <path id="Trazado_44" data-name="Trazado 44" d="M16.526,19.372a3.414,3.414,0,0,0,2.455-1.03L28.833,8.315a1.973,1.973,0,0,0-1.243-.44H5.469a1.96,1.96,0,0,0-1.243.44l9.852,10.028A3.414,3.414,0,0,0,16.526,19.372Z" transform="translate(-3.466 -7.875)" fill="#fff"/>
  </g>
</svg>
