<svg xmlns="http://www.w3.org/2000/svg" width="42.332" height="39.949" viewBox="0 0 42.332 39.949">
  <path id="Icon_awesome-instagram" data-name="Icon awesome-instagram" d="M21.165,11.97c-6.006,0-10.851,4.573-10.851,10.242s4.845,10.242,10.851,10.242,10.851-4.573,10.851-10.242S27.172,11.97,21.165,11.97Zm0,16.9a6.878,6.878,0,0,1-7.055-6.659,6.872,6.872,0,0,1,7.055-6.659,6.872,6.872,0,0,1,7.055,6.659A6.878,6.878,0,0,1,21.165,28.871Zm13.826-17.32a2.535,2.535,0,0,1-5.062,0,2.535,2.535,0,0,1,5.062,0Zm7.187,2.425c-.161-3.2-.935-6.035-3.419-8.37s-5.477-3.066-8.868-3.227c-3.494-.187-13.967-.187-17.462,0C9.049,2.53,6.046,3.261,3.562,5.6S.313,10.766.143,13.967c-.2,3.3-.2,13.184,0,16.482.161,3.2.935,6.035,3.419,8.37s5.477,3.067,8.868,3.227c3.494.187,13.967.187,17.462,0,3.39-.152,6.393-.883,8.868-3.227s3.249-5.17,3.419-8.37c.2-3.3.2-13.175,0-16.474ZM37.664,33.988a6.954,6.954,0,0,1-4.023,3.8c-2.786,1.043-9.4.8-12.475.8s-9.7.232-12.475-.8a6.955,6.955,0,0,1-4.023-3.8c-1.1-2.63-.85-8.87-.85-11.776s-.246-9.155.85-11.776a6.954,6.954,0,0,1,4.023-3.8c2.786-1.043,9.4-.8,12.475-.8s9.7-.232,12.475.8a6.955,6.955,0,0,1,4.023,3.8c1.1,2.63.85,8.87.85,11.776S38.769,31.367,37.664,33.988Z" transform="translate(0.005 -2.238)" fill="#fff"/>
</svg>
