<svg xmlns="http://www.w3.org/2000/svg" width="44.878" height="51.035" viewBox="0 0 44.878 51.035">
  <g id="NFPA" transform="translate(0 0)">
    <path id="Trazado_59" data-name="Trazado 59" d="M186.582,178.368v-.751h.281c.282,0,.376.094.376.375a.344.344,0,0,1-.375.375Zm.657.187a.5.5,0,0,0,.563-.563c0-.563-.469-.751-.938-.751h-.844v2.252h.563v-.844h.187l.563.844h.657Z" transform="translate(-144.084 -137.277)" fill="#fff" fill-rule="evenodd"/>
    <path id="Trazado_60" data-name="Trazado 60" d="M180.489,175.371v0a1.959,1.959,0,0,1,.6-1.415,2.134,2.134,0,0,1,1.488-.587h.008a2.158,2.158,0,0,1,1.458.587h0a1.95,1.95,0,0,1,.638,1.413v.008a2.073,2.073,0,0,1-.638,1.5,2.114,2.114,0,0,1-1.454.6h-.008a2.052,2.052,0,0,1-2.095-2.092v-.006Zm.255,0v.008a1.794,1.794,0,0,0,1.839,1.836h.008a1.857,1.857,0,0,0,1.278-.526,1.818,1.818,0,0,0,.559-1.313v-.008a1.7,1.7,0,0,0-.557-1.227h0s0,0,0,0h0a1.9,1.9,0,0,0-1.283-.517h-.008a1.878,1.878,0,0,0-1.312.514,1.7,1.7,0,0,0-.524,1.232" transform="translate(-139.807 -134.28)" fill="#fff"/>
    <g id="Grupo_53" data-name="Grupo 53" transform="translate(0 0)">
      <g id="Grupo_52" data-name="Grupo 52" transform="translate(0 0)">
        <path id="Trazado_61" data-name="Trazado 61" d="M68.313,59.632c.094-.938.657-3.1.563-2.252a6.564,6.564,0,0,0,1.595,4.409A22.731,22.731,0,0,1,73.1,65.636c.563,1.126,1.5,2.627,1.219,3.1a11.545,11.545,0,0,0,1.22-1.876,8,8,0,0,0,.75-3.284c.188-1.595-.563-5.066-.094-3.94.282.657,3.19,4.6,3.659,8.068a9.171,9.171,0,0,1,0,4.222c-.375,2.064-.845,2.721-2.158,4.879-.282.375.281-2.908.281-3.846.188-1.314-.844,2.439-1.595,3.846a11.953,11.953,0,0,1-1.407,2.345,18.416,18.416,0,0,1-2.815,3,8.843,8.843,0,0,0,.75-2.627,11.6,11.6,0,0,0,0-4.409c-.187-1.407-.938-3-.844-3.471-.094-1.032-.281,1.408-.469,2.252-.563,2.814-1.97,6.379-1.876,7.036a14.142,14.142,0,0,1-2.064-2.439c-1.22-1.782-1.689-5.441-1.783-5.254a7.868,7.868,0,0,0-.375,4.222c.094.281-1.126-1.126-1.595-2.064-1.407-2.533-1.032-4.6-.469-7.5.375-1.689.844-2.252,1.22-4.222.188-1.126-.938-4.6-.282-3,.469.845,2.252,2.439,3,4.034.469,1.032,1.408,2.533,1.5,2.721.094.375.375-1.126.375-1.877a20.987,20.987,0,0,0-.844-4.034,5.808,5.808,0,0,1-.094-1.876" transform="translate(-48.893 -44.434)" fill="#fff" fill-rule="evenodd"/>
        <path id="Trazado_62" data-name="Trazado 62" d="M95.356,34.656A21.892,21.892,0,0,0,96.013,37c.657,1.689,1.97,2.345,2.533,4.221a4.55,4.55,0,0,1,.281,1.689c.188,1.126-.375,2.721-.281,3,.094.563-.657-1.219-1.126-1.876-.563-.938-1.032-1.313-1.595-2.251a7.785,7.785,0,0,1-1.219-3.19,6.454,6.454,0,0,1-.094-3,9,9,0,0,1,.563-2.627,10.57,10.57,0,0,0,.282,1.689" transform="translate(-73.216 -25.65)" fill="#fff" fill-rule="evenodd"/>
        <path id="Trazado_63" data-name="Trazado 63" d="M40.309.916c2.721,0,5.441,1.782,5.441,4.5V34.6c0,2.627-2.251,4.034-5.441,4.128H32.522V33.376h5.723a1.845,1.845,0,0,0,1.876-1.97V8.234a1.764,1.764,0,0,0-1.688-1.782H8.411A1.862,1.862,0,0,0,6.535,8.234V31.406a1.849,1.849,0,0,0,1.97,1.876,52.06,52.06,0,0,0,5.629,0V38.63h-7.6C3.252,38.63,1,37.222,1,34.6V5.325C1,2.6,3.814.916,6.441.916Z" transform="translate(-1 -0.916)" fill="#fff" fill-rule="evenodd"/>
      </g>
      <path id="Trazado_64" data-name="Trazado 64" d="M8.45,175.774h3.377l3.284,5.629v-5.629h3.565v11.258H15.017l-3.19-5.535v5.535H8.45ZM19.9,187.032V175.681h8.819v3.1H23.179v1.595H27.87V183H23.085v4.034Zm15.761-11.445a4.035,4.035,0,0,1,0,8.068H33.123v3.377H29.84V175.587Zm0,5.254H33.123v-2.533h2.345a1.591,1.591,0,0,1,1.313,1.313,1.305,1.305,0,0,1-1.126,1.219m6.379-5.066H45.32l4.222,11.258H45.976l-.51-1.595h-3.44l-.553,1.595H38.19Zm2.712,7.412-.929-2.908-1.01,2.908Z" transform="translate(-6.761 -135.997)" fill="#fff" fill-rule="evenodd"/>
    </g>
  </g>
</svg>
