<svg id="OSHA_Occupational_Safety_and_Health_Administration" data-name="OSHA Occupational Safety and Health Administration" xmlns="http://www.w3.org/2000/svg" width="177.404" height="51.035" viewBox="0 0 177.404 51.035">
  <path id="Trazado_55" data-name="Trazado 55" d="M221.438,155.1a80.613,80.613,0,0,1-.665-9.71c-2.128-.266-7.893-1.02-9.8-1.02-8.779,0-15.031,5.232-15.031,14.056,0,16.361,20,12.637,20,24.7,0,4.833-3.725,7.759-8.38,7.759-6.474,0-9.71-5.01-10.553-10.819l-1.907.4c.355,3.459.8,6.873,1.153,10.331a24.351,24.351,0,0,0,10.819,3.059c8.691,0,16.45-4.877,16.45-14.277,0-16.317-20.4-12.9-20.4-24.21,0-5.365,2.971-8.558,8.38-8.558,4.7,0,7.538,4.212,8.026,8.646m16.361,14.543h24.7v16.938c0,3.68-2.838,3.858-5.321,3.858h-1.286v2.04c2.971,0,7.36-.266,11-.266,3.458,0,7.538.266,10.243.266v-2.04h-.931c-2.439,0-5.01-.355-5.01-3.858v-35.6c0-3.547,2.572-3.858,5.01-3.858h.931v-2.04c-2.7,0-6.784.266-10.243.266-3.68,0-8.026-.266-11-.266v2.04h1.286c2.439,0,5.321.222,5.321,3.858v14.9h-24.7v-14.9c0-3.68,2.838-3.858,5.321-3.858H242.5v-2.04c-2.971,0-7.36.266-11,.266-3.458,0-7.538-.266-10.243-.266v2.04h.931c2.439,0,5.01.355,5.01,3.858v35.6c0,3.547-2.572,3.858-5.01,3.858h-.975v2.04c2.7,0,6.784-.266,10.242-.266,3.68,0,8.026.266,11,.266v-2.04h-1.286c-2.439,0-5.321-.222-5.321-3.858m65.535-14.677H288.657L295,153.011h.133Zm-14.011,3.813H302.8l2.66,7.893a21.764,21.764,0,0,1,1.375,4.877c0,1.685-2.66,1.951-4.212,1.951h-.754v2.04c3.458-.133,6.873-.266,10.2-.266,3.281,0,6.341.133,9.4.266v-2.04h-.4c-2.261,0-3.68-.8-4.478-2.7-.887-2.04-1.685-4.567-2.527-6.917l-12.548-35.561-.621-1.685c-.133-.222-.266-.222-.488-.222a1.871,1.871,0,0,0-.532.133,35.708,35.708,0,0,1-6.208,2.926,55.279,55.279,0,0,1-2.527,8.425L280.277,186.4a6.219,6.219,0,0,1-5.9,4.434h-.4v2.04c2.439-.133,4.877-.266,7.36-.266,2.7,0,5.5.133,8.247.266v-2.04h-.754c-2.261,0-5.1-.355-5.1-2.394,0-1.242.8-2.971,1.508-5.321" transform="translate(-144.065 -143.124)" fill="#fff" fill-rule="evenodd"/>
  <path id="Trazado_56" data-name="Trazado 56" d="M109.463,174.976A13.736,13.736,0,1,1,108,188.588a9.359,9.359,0,1,0,7.05-15.519,9.75,9.75,0,0,0-5.587,1.907" transform="translate(-95.585 -157.373)" fill="#fff" fill-rule="evenodd"/>
  <path id="Trazado_57" data-name="Trazado 57" d="M80,175.765a19.456,19.456,0,0,1,36-10.243,15.03,15.03,0,1,0-11,25.274,14.857,14.857,0,0,0,10.775-4.567A19.44,19.44,0,0,1,80,175.765" transform="translate(-80 -150.137)" fill="#fff" fill-rule="evenodd"/>
  <path id="Trazado_58" data-name="Trazado 58" d="M83.2,157.653a25.439,25.439,0,1,1,.089,20.884,20.83,20.83,0,1,0-.089-20.884m167.029-11.085c.8-.044,1.02-.355,1.02-.8,0-.4-.177-.621-.887-.621H249.3v1.419Zm-.887.887v2.394h-.887v-5.587h1.818c1.02,0,2.084.266,2.084,1.552A1.284,1.284,0,0,1,251.2,147.1v.044c.754.133.842.488.931,1.109a9.248,9.248,0,0,0,.31,1.6h-1.109c-.044-.31-.133-.665-.177-.975a1.921,1.921,0,0,0-.31-1.2,1.008,1.008,0,0,0-.8-.222Zm4.877-.31a3.9,3.9,0,1,0-3.9,3.9h0a3.88,3.88,0,0,0,3.9-3.9m-8.646,0a4.744,4.744,0,1,1,4.744,4.744,4.75,4.75,0,0,1-4.744-4.744h0" transform="translate(-81.781 -142.4)" fill="#fff" fill-rule="evenodd"/>
</svg>
