<svg xmlns="http://www.w3.org/2000/svg" width="22.436" height="22.436" viewBox="0 0 22.436 22.436">
  <path id="Icon_awesome-phone-alt" data-name="Icon awesome-phone-alt" d="M21.8,15.854l-4.908-2.1a1.052,1.052,0,0,0-1.227.3l-2.174,2.656A16.243,16.243,0,0,1,5.723,8.944L8.379,6.771a1.049,1.049,0,0,0,.3-1.227L6.577.636A1.059,1.059,0,0,0,5.372.027L.815,1.079A1.052,1.052,0,0,0,0,2.1,20.331,20.331,0,0,0,20.333,22.436a1.052,1.052,0,0,0,1.025-.815l1.052-4.557a1.064,1.064,0,0,0-.614-1.209Z" transform="translate(0 0)" fill="#fff"/>
</svg>
