<svg xmlns="http://www.w3.org/2000/svg" width="146.639" height="144.907" viewBox="0 0 146.639 144.907">
  <g id="Grupo_70" data-name="Grupo 70" transform="translate(482.103 -96.376)">
    <g id="Grupo_69" data-name="Grupo 69" transform="translate(-482.103 96.376)">
      <g id="Grupo_68" data-name="Grupo 68">
        <g id="Grupo_67" data-name="Grupo 67" transform="translate(38.229)">
          <path id="Trazado_101" data-name="Trazado 101" d="M-378.133,238.956c-6.056,0-14-.188-17.473-1.09-5.3-1.376-16.283-8.5-17.518-9.3l-1.153-.754.2-56.984,1.191-.742a18.939,18.939,0,0,0,5.309-5.4c5.98-9.729,18.137-33.375,20.127-37.259V99.5l1.113-.755a15.449,15.449,0,0,1,8.146-2.368,13.939,13.939,0,0,1,7.605,2.259c12.678,8.092,13.741,25.571,13.78,26.311l0,.141-.062,19.86h35.642a15.376,15.376,0,0,1,15.359,15.359,15.29,15.29,0,0,1-5.323,11.631,16.869,16.869,0,0,1,4.759,11.76,16.871,16.871,0,0,1-6.97,13.68,16.747,16.747,0,0,1,1.052,5.836,16.8,16.8,0,0,1-10.816,15.627,18.415,18.415,0,0,1,.107,1.986A18,18,0,0,1-340.9,238.934h-33.929S-376.153,238.956-378.133,238.956Zm-31.063-13.9c3.82,2.428,11.451,7.011,14.865,7.9,2.27.589,8.173.927,16.2.927,1.953,0,3.252-.021,3.263-.021H-340.9a12.917,12.917,0,0,0,12.766-13.034,13.376,13.376,0,0,0-.382-3.17l-.62-2.532,2.549-.55a11.679,11.679,0,0,0,9.162-11.361,11.63,11.63,0,0,0-1.428-5.586l-1.24-2.258,2.277-1.205A11.821,11.821,0,0,0-311.5,183.7a11.822,11.822,0,0,0-5.292-9.862l-3.6-2.4,3.852-1.973a10.251,10.251,0,0,0,5.607-9.159,10.3,10.3,0,0,0-10.286-10.286h-40.73l.078-24.864c-.074-1.038-1.3-15.777-11.44-22.246a8.951,8.951,0,0,0-4.876-1.462,10.563,10.563,0,0,0-4.186.919v26.281l-.277.543c-.569,1.114-14,27.416-20.6,38.15a23.681,23.681,0,0,1-5.759,6.212Z" transform="translate(414.278 -96.376)" fill="#707070"/>
        </g>
        <path id="Trazado_102" data-name="Trazado 102" d="M-444.892,213.469H-475.72a6.662,6.662,0,0,0-6.383,6.91v65.089a6.662,6.662,0,0,0,6.383,6.91h30.828a6.662,6.662,0,0,0,6.383-6.91V220.379A6.662,6.662,0,0,0-444.892,213.469Zm-9.26,69.987A5.454,5.454,0,0,1-459.607,278a5.455,5.455,0,0,1,5.454-5.454A5.454,5.454,0,0,1-448.7,278,5.454,5.454,0,0,1-454.152,283.456Z" transform="translate(482.103 -147.471)" fill="#707070"/>
      </g>
    </g>
  </g>
</svg>
