<svg xmlns="http://www.w3.org/2000/svg" width="42" height="42" viewBox="0 0 42 42">
  <g id="Grupo_154" data-name="Grupo 154" transform="translate(-348 -5185)">
    <rect id="Rectángulo_45" data-name="Rectángulo 45" width="42" height="42" transform="translate(348 5185)" fill="#1f4690"/>
    <g id="share-symbol_icon-icons.com_73418" transform="translate(358.056 5177.697)">
      <g id="Grupo_1" data-name="Grupo 1" transform="translate(0 18.273)">
        <path id="Trazado_7" data-name="Trazado 7" d="M91.226,23.536l-5.015-5.015a.8.8,0,0,0-.588-.248.91.91,0,0,0-.326.065.781.781,0,0,0-.51.771v2.508H82.7a21.339,21.339,0,0,0-2.566.144,13.843,13.843,0,0,0-2.083.4,8.478,8.478,0,0,0-1.626.633,6.955,6.955,0,0,0-1.234.8,5.092,5.092,0,0,0-.895.966,6,6,0,0,0-.614,1.064,6.15,6.15,0,0,0-.366,1.149,9.009,9.009,0,0,0-.183,1.175q-.046.548-.046,1.188a6.252,6.252,0,0,0,.229,1.594,10.4,10.4,0,0,0,.5,1.489q.274.626.647,1.3t.516.894q.144.222.274.4a.409.409,0,0,0,.339.17.708.708,0,0,0,.157-.026.4.4,0,0,0,.261-.444q-.588-4.388.966-6.177,1.5-1.711,5.72-1.711h2.09v2.507a.781.781,0,0,0,.509.771.907.907,0,0,0,.326.065.777.777,0,0,0,.588-.248l5.015-5.015a.82.82,0,0,0,0-1.175Z" transform="translate(-69.743 -18.273)" fill="#fff"/>
        <path id="Trazado_8" data-name="Trazado 8" d="M18.114,65.685a.388.388,0,0,0-.457.1,2.753,2.753,0,0,1-.705.483.411.411,0,0,0-.235.379v2.8a2.1,2.1,0,0,1-2.089,2.089H3.761a2.012,2.012,0,0,1-1.476-.614,2.012,2.012,0,0,1-.614-1.476V58.58A2.012,2.012,0,0,1,2.285,57.1a2.012,2.012,0,0,1,1.476-.614H5.224a.6.6,0,0,0,.209-.052,8.72,8.72,0,0,1,1.737-.784.381.381,0,0,0,.34-.418.423.423,0,0,0-.418-.418H3.761a3.623,3.623,0,0,0-2.658,1.1A3.623,3.623,0,0,0,0,58.58V69.446A3.623,3.623,0,0,0,1.1,72.1a3.623,3.623,0,0,0,2.658,1.1H14.627a3.768,3.768,0,0,0,3.761-3.761V66.063A.4.4,0,0,0,18.114,65.685Z" transform="translate(0 -53.147)" fill="#fff"/>
      </g>
    </g>
  </g>
</svg>
