<svg id="Layer_2" data-name="Layer 2" xmlns="http://www.w3.org/2000/svg" width="24" height="24" viewBox="0 0 24 24">
  <g id="download">
    <g id="download-2" data-name="download">
      <rect id="Rectángulo_230" data-name="Rectángulo 230" width="24" height="24" fill="#fff026" opacity="0"/>
      <rect id="Rectángulo_231" data-name="Rectángulo 231" width="16" height="2" rx="1" transform="translate(4 18)" fill="#fff026"/>
      <rect id="Rectángulo_232" data-name="Rectángulo 232" width="4" height="2" rx="1" transform="translate(4 20) rotate(-90)" fill="#fff026"/>
      <rect id="Rectángulo_233" data-name="Rectángulo 233" width="4" height="2" rx="1" transform="translate(18 20) rotate(-90)" fill="#fff026"/>
      <path id="Trazado_51" data-name="Trazado 51" d="M12,15a1,1,0,0,1-.58-.18L7.42,12a1,1,0,1,1,1.16-1.63L12,12.76l3.4-2.56a1,1,0,1,1,1.2,1.6l-4,3a1,1,0,0,1-.6.2Z" fill="#fff026"/>
      <path id="Trazado_52" data-name="Trazado 52" d="M12,13a1,1,0,0,1-1-1V4a1,1,0,0,1,2,0v8A1,1,0,0,1,12,13Z" fill="#fff026"/>
    </g>
  </g>
</svg>
