<svg xmlns="http://www.w3.org/2000/svg" width="39.333" height="39.333" viewBox="0 0 39.333 39.333">
  <g id="magnifier-1_icon-icons.com_56924_1_" data-name="magnifier-1_icon-icons.com_56924 (1)" transform="translate(-0.001)">
    <g id="Grupo_24" data-name="Grupo 24" transform="translate(0.001)">
      <path id="Trazado_39" data-name="Trazado 39" d="M310.475,305.267l-9.024-9.024a17.37,17.37,0,0,1-5.215,5.214l9.024,9.024a3.687,3.687,0,0,0,5.214-5.214Z" transform="translate(-272.222 -272.228)" fill="#1f4690"/>
      <path id="Trazado_40" data-name="Trazado 40" d="M29.5,14.75A14.75,14.75,0,1,0,14.751,29.5,14.751,14.751,0,0,0,29.5,14.75ZM14.751,25.812A11.062,11.062,0,1,1,25.814,14.75,11.074,11.074,0,0,1,14.751,25.812Z" transform="translate(-0.001)" fill="#1f4690"/>
      <path id="Trazado_41" data-name="Trazado 41" d="M75.817,84.42h2.458a6.153,6.153,0,0,1,6.146-6.146V75.816A8.615,8.615,0,0,0,75.817,84.42Z" transform="translate(-69.671 -69.67)" fill="#1f4690"/>
    </g>
  </g>
</svg>
